<svg width="21" height="21" viewBox="0 0 21 21" fill="none" xmlns="http://www.w3.org/2000/svg">
<path d="M19.3558 7.67252C19.3558 7.68112 19.3558 7.68893 19.3503 7.69752L17.5785 15.8124C17.5239 16.0981 17.3714 16.3559 17.1473 16.5413C16.9231 16.7267 16.6413 16.8281 16.3503 16.828H4.89957C4.6088 16.8279 4.32716 16.7264 4.10314 16.541C3.87913 16.3557 3.72674 16.098 3.67222 15.8124L1.90035 7.69752C1.90035 7.68893 1.89644 7.68112 1.89488 7.67252C1.84638 7.40385 1.88718 7.12669 2.01104 6.88339C2.1349 6.64009 2.33501 6.44403 2.58079 6.32517C2.82657 6.20631 3.10451 6.17119 3.37214 6.22516C3.63976 6.27914 3.88235 6.41925 4.06285 6.62409L6.69332 9.45924L9.49019 3.18659C9.49032 3.18398 9.49032 3.18138 9.49019 3.17877C9.5902 2.96186 9.75027 2.77814 9.95145 2.64936C10.1526 2.52059 10.3865 2.45215 10.6253 2.45215C10.8642 2.45215 11.0981 2.52059 11.2992 2.64936C11.5004 2.77814 11.6605 2.96186 11.7605 3.17877C11.7604 3.18138 11.7604 3.18398 11.7605 3.18659L14.5574 9.45924L17.1878 6.62409C17.3687 6.42077 17.611 6.28203 17.8779 6.22894C18.1448 6.17584 18.4217 6.21129 18.6666 6.3299C18.9115 6.44852 19.1111 6.64381 19.2349 6.88613C19.3587 7.12845 19.4001 7.40456 19.3527 7.67252H19.3558Z" fill="url(#paint0_linear_12305_25667)"/>
<defs>
<linearGradient id="paint0_linear_12305_25667" x1="1.625" y1="6.57764" x2="16.7915" y2="16.3183" gradientUnits="userSpaceOnUse">
<stop offset="0.0611994" stop-color="#BC8B08"/>
<stop offset="0.322115" stop-color="#ECCC7D"/>
<stop offset="0.552885" stop-color="#FFE7AD"/>
<stop offset="0.783654" stop-color="#ECCC7D"/>
<stop offset="0.783654" stop-color="#ECCC7D"/>
<stop offset="1" stop-color="#BC8B08"/>
</linearGradient>
</defs>
</svg>
