<svg width="16" height="16" viewBox="0 0 16 16" fill="none" xmlns="http://www.w3.org/2000/svg">
<path d="M3.41937 12.5003H12.5806C12.6982 12.5004 12.812 12.459 12.9021 12.3834C12.9921 12.3078 13.0527 12.203 13.0731 12.0872L14.4919 5.5872C14.5097 5.48024 14.4922 5.37038 14.4422 5.27419C14.3921 5.178 14.3121 5.1007 14.2143 5.05393C14.1165 5.00717 14.0061 4.99348 13.8998 5.01492C13.7935 5.03637 13.697 5.09179 13.625 5.17283L11 8.00033L8.45375 2.29095C8.41366 2.20436 8.34964 2.13104 8.26924 2.07966C8.18884 2.02828 8.09541 2.00098 8 2.00098C7.90458 2.00098 7.81115 2.02828 7.73075 2.07966C7.65035 2.13104 7.58633 2.20436 7.54625 2.29095L5 8.00033L2.375 5.17283C2.3031 5.0906 2.20626 5.03418 2.09927 5.01219C1.99229 4.9902 1.88105 5.00384 1.78255 5.05104C1.68405 5.09823 1.60371 5.17638 1.55382 5.27354C1.50392 5.3707 1.48721 5.48152 1.50625 5.58908L2.925 12.0891C2.94587 12.2048 3.00688 12.3095 3.0973 12.3847C3.18772 12.4599 3.30176 12.5009 3.41937 12.5003Z" stroke="#111827" stroke-width="1.2" stroke-linecap="round" stroke-linejoin="round"/>
</svg>
