<svg width="20" height="21" viewBox="0 0 20 21" fill="none" xmlns="http://www.w3.org/2000/svg">
<path d="M16.875 6.75H3.125C2.77982 6.75 2.5 7.02982 2.5 7.375V9.875C2.5 10.2202 2.77982 10.5 3.125 10.5H16.875C17.2202 10.5 17.5 10.2202 17.5 9.875V7.375C17.5 7.02982 17.2202 6.75 16.875 6.75Z" stroke="#111827" stroke-linecap="round" stroke-linejoin="round"/>
<path d="M16.25 10.5V16.125C16.25 16.2908 16.1842 16.4497 16.0669 16.5669C15.9497 16.6842 15.7908 16.75 15.625 16.75H4.375C4.20924 16.75 4.05027 16.6842 3.93306 16.5669C3.81585 16.4497 3.75 16.2908 3.75 16.125V10.5" stroke="#111827" stroke-linecap="round" stroke-linejoin="round"/>
<path d="M10 6.75V16.75" stroke="#111827" stroke-linecap="round" stroke-linejoin="round"/>
<path d="M13.8117 2.93849C14.5414 3.66818 14.5844 4.89631 13.8117 5.58068C12.4906 6.75021 10 6.75021 10 6.75021C10 6.75021 10 4.25959 11.1719 2.93849C11.8539 2.16584 13.082 2.20881 13.8117 2.93849Z" stroke="#111827" stroke-linecap="round" stroke-linejoin="round"/>
<path d="M6.18801 2.93849C5.45832 3.66818 5.41535 4.89631 6.18801 5.58068C7.5091 6.75021 9.99972 6.75021 9.99972 6.75021C9.99972 6.75021 9.99972 4.25959 8.82785 2.93849C8.14582 2.16584 6.91769 2.20881 6.18801 2.93849Z" stroke="#111827" stroke-linecap="round" stroke-linejoin="round"/>
</svg>
