<svg width="15" height="14" viewBox="0 0 15 14" fill="none" xmlns="http://www.w3.org/2000/svg">
<path d="M12.5918 10.5V7C12.5918 4.10051 10.2413 1.75 7.3418 1.75C4.4423 1.75 2.0918 4.1005 2.0918 7V10.5M3.55013 12.25C2.74471 12.25 2.0918 11.5971 2.0918 10.7917V9.625C2.0918 8.81958 2.74471 8.16667 3.55013 8.16667C4.35555 8.16667 5.00846 8.81958 5.00846 9.625V10.7917C5.00846 11.5971 4.35555 12.25 3.55013 12.25ZM11.1335 12.25C10.328 12.25 9.67513 11.5971 9.67513 10.7917V9.625C9.67513 8.81958 10.328 8.16667 11.1335 8.16667C11.9389 8.16667 12.5918 8.81958 12.5918 9.625V10.7917C12.5918 11.5971 11.9389 12.25 11.1335 12.25Z" stroke="#A1632D" stroke-linecap="round" stroke-linejoin="round"/>
</svg>
