<svg width="21" height="20" viewBox="0 0 21 20" fill="none" xmlns="http://www.w3.org/2000/svg">
<path d="M17.8796 7.62366L10.506 15.4544C10.4662 15.4966 10.399 15.4963 10.3596 15.4537L3.1202 7.60586C3.08288 7.5654 3.08527 7.50241 3.12553 7.46489L6.31343 4.49439C6.33195 4.47713 6.35634 4.46754 6.38166 4.46755L14.6995 4.47262C14.7253 4.47264 14.7501 4.48262 14.7687 4.50048L17.876 7.48296C17.9156 7.52095 17.9172 7.58372 17.8796 7.62366Z" stroke="#6B7280"/>
<path d="M10.9676 8.04977L10.5847 6.89873C10.5544 6.80786 10.4261 6.80736 10.3951 6.89799L9.99699 8.06439C9.98694 8.09383 9.96375 8.11692 9.93427 8.12685L8.7837 8.5143C8.69268 8.54495 8.69299 8.67379 8.78415 8.704L9.93933 9.08679C9.96928 9.09672 9.99279 9.1202 10.0028 9.15014L10.396 10.3316C10.4263 10.4229 10.5555 10.4229 10.5858 10.3316L10.9757 9.1562C10.9857 9.12617 11.0093 9.10263 11.0393 9.09272L12.216 8.70472C12.3071 8.67466 12.3077 8.54587 12.2167 8.51505L11.0304 8.11291C11.0008 8.10286 10.9775 8.07949 10.9676 8.04977Z" stroke="#6B7280" stroke-width="0.5"/>
</svg>
