<svg width="21" height="20" viewBox="0 0 21 20" fill="none" xmlns="http://www.w3.org/2000/svg">
<path d="M2.6001 5C2.6001 4.83424 2.66595 4.67527 2.78316 4.55806C2.90037 4.44085 3.05934 4.375 3.2251 4.375H16.9751C17.1409 4.375 17.2998 4.44085 17.417 4.55806C17.5343 4.67527 17.6001 4.83424 17.6001 5C17.6001 5.16576 17.5343 5.32473 17.417 5.44194C17.2998 5.55915 17.1409 5.625 16.9751 5.625H3.2251C3.05934 5.625 2.90037 5.55915 2.78316 5.44194C2.66595 5.32473 2.6001 5.16576 2.6001 5ZM3.2251 10.625H8.8501C9.01586 10.625 9.17483 10.5592 9.29204 10.4419C9.40925 10.3247 9.4751 10.1658 9.4751 10C9.4751 9.83424 9.40925 9.67527 9.29204 9.55806C9.17483 9.44085 9.01586 9.375 8.8501 9.375H3.2251C3.05934 9.375 2.90037 9.44085 2.78316 9.55806C2.66595 9.67527 2.6001 9.83424 2.6001 10C2.6001 10.1658 2.66595 10.3247 2.78316 10.4419C2.90037 10.5592 3.05934 10.625 3.2251 10.625ZM10.1001 14.375H3.2251C3.05934 14.375 2.90037 14.4408 2.78316 14.5581C2.66595 14.6753 2.6001 14.8342 2.6001 15C2.6001 15.1658 2.66595 15.3247 2.78316 15.4419C2.90037 15.5592 3.05934 15.625 3.2251 15.625H10.1001C10.2659 15.625 10.4248 15.5592 10.542 15.4419C10.6593 15.3247 10.7251 15.1658 10.7251 15C10.7251 14.8342 10.6593 14.6753 10.542 14.5581C10.4248 14.4408 10.2659 14.375 10.1001 14.375ZM18.6673 14.5578L17.0813 12.9688C17.5077 12.3225 17.679 11.541 17.562 10.7757C17.4451 10.0104 17.0482 9.31576 16.4483 8.82637C15.8484 8.33697 15.0882 8.08768 14.315 8.1268C13.5418 8.16592 12.8106 8.49066 12.2632 9.0381C11.7158 9.58554 11.391 10.3167 11.3519 11.0899C11.3128 11.8631 11.5621 12.6233 12.0515 13.2232C12.5409 13.8231 13.2355 14.22 14.0008 14.3369C14.7661 14.4539 15.5476 14.2826 16.1938 13.8563L17.7798 15.4422C17.8971 15.5595 18.0561 15.6253 18.222 15.6253C18.3878 15.6253 18.5469 15.5595 18.6642 15.4422C18.7814 15.3249 18.8473 15.1659 18.8473 15C18.8473 14.8341 18.7814 14.6751 18.6642 14.5578H18.6673Z" fill="#C61C53"/>
</svg>
