<svg width="21" height="21" viewBox="0 0 21 21" fill="none" xmlns="http://www.w3.org/2000/svg">
<path d="M12.0244 9.50485L12.0075 16.0678H14.2623L14.2994 9.50485M12.0244 9.50485L10.204 6.781C10.6388 6.21695 11.8336 5.08887 13.1348 5.08887C14.436 5.08887 15.6238 6.23514 16.0551 6.80828L14.2994 9.50485M12.0244 9.50485H13.1619M14.2994 9.50485H13.1619M5.88245 12.7196V12.7727M5.88245 12.7727V15.9892H9.12564V12.7727H8.85981M5.88245 12.7727H6.25474M6.25474 12.7727V8.70563H6.60031M6.25474 12.7727H8.85981M8.85981 12.7727V8.70563H8.40791M6.60031 8.70563V5.99422L8.40791 5.19675V8.70563M6.60031 8.70563H8.40791M13.1619 9.50485L13.6791 8.17317M13.1619 9.50485L12.5513 8.13191" stroke="white" stroke-width="0.571429" stroke-linecap="round" stroke-linejoin="round"/>
</svg>
