<svg width="21" height="21" viewBox="0 0 21 21" fill="none" xmlns="http://www.w3.org/2000/svg">
<path d="M12.0419 9.34717L12.0235 16.5205H14.4617L14.5019 9.34717M12.0419 9.34717L10.0734 6.37C10.5435 5.75351 11.8356 4.52051 13.2426 4.52051C14.6496 4.52051 15.934 5.77339 16.4004 6.39983L14.5019 9.34717M12.0419 9.34717H13.2719M14.5019 9.34717H13.2719M5.40039 12.8609V12.919M5.40039 12.919V16.4346H8.90735V12.919H8.61991M5.40039 12.919H5.80296M5.80296 12.919V8.47362H6.17664M5.80296 12.919H8.61991M8.61991 12.919V8.47362H8.13125M6.17664 8.47362V5.51006L8.13125 4.63842V8.47362M6.17664 8.47362H8.13125M13.2719 9.34717L13.8311 7.89165M13.2719 9.34717L12.6116 7.84655" stroke="#6B7280" stroke-width="0.8" stroke-linecap="round" stroke-linejoin="round"/>
</svg>
