<svg width="14" height="14" viewBox="0 0 14 14" fill="none" xmlns="http://www.w3.org/2000/svg">
<path d="M7 8.75C7.9665 8.75 8.75 7.9665 8.75 7C8.75 6.0335 7.9665 5.25 7 5.25C6.0335 5.25 5.25 6.0335 5.25 7C5.25 7.9665 6.0335 8.75 7 8.75Z" stroke="#A1632D" stroke-linecap="round" stroke-linejoin="round"/>
<path d="M13.125 3.5H0.875V10.5H13.125V3.5Z" stroke="#A1632D" stroke-linecap="round" stroke-linejoin="round"/>
<path d="M13.125 5.6875C12.5785 5.59487 12.0743 5.33455 11.6824 4.9426C11.2905 4.55066 11.0301 4.0465 10.9375 3.5" stroke="#A1632D" stroke-linecap="round" stroke-linejoin="round"/>
<path d="M10.9375 10.5C11.0301 9.9535 11.2905 9.44934 11.6824 9.0574C12.0743 8.66545 12.5785 8.40513 13.125 8.3125" stroke="#A1632D" stroke-linecap="round" stroke-linejoin="round"/>
<path d="M0.875 8.3125C1.4215 8.40513 1.92566 8.66545 2.3176 9.0574C2.70955 9.44934 2.96987 9.9535 3.0625 10.5" stroke="#A1632D" stroke-linecap="round" stroke-linejoin="round"/>
<path d="M3.0625 3.5C2.96987 4.0465 2.70955 4.55066 2.3176 4.9426C1.92566 5.33455 1.4215 5.59487 0.875 5.6875" stroke="#A1632D" stroke-linecap="round" stroke-linejoin="round"/>
</svg>
