<svg width="18" height="18" viewBox="0 0 18 18" fill="none" xmlns="http://www.w3.org/2000/svg">
<path d="M9 9.07617V16.3099" stroke="#111827" stroke-linecap="round" stroke-linejoin="round"/>
<path d="M2.29932 5.4082L9.0001 9.0757L15.7009 5.4082" stroke="#111827" stroke-linecap="round" stroke-linejoin="round"/>
<path d="M15.4575 12.8556L9.27 16.2433C9.18722 16.2886 9.09437 16.3123 9 16.3123C8.90563 16.3123 8.81279 16.2886 8.73 16.2433L2.5425 12.8556C2.45415 12.8073 2.3804 12.7361 2.32894 12.6495C2.27749 12.563 2.25023 12.4642 2.25 12.3635V5.63736C2.25023 5.53664 2.27749 5.43784 2.32894 5.35126C2.3804 5.26469 2.45415 5.19351 2.5425 5.14517L8.73 1.75751C8.81279 1.71222 8.90563 1.68848 9 1.68848C9.09437 1.68848 9.18722 1.71222 9.27 1.75751L15.4575 5.14517C15.5459 5.19351 15.6196 5.26469 15.6711 5.35126C15.7225 5.43784 15.7498 5.53664 15.75 5.63736V12.362C15.75 12.463 15.7229 12.5621 15.6714 12.6489C15.62 12.7358 15.5461 12.8072 15.4575 12.8556Z" stroke="#2B2B2B" stroke-linecap="round" stroke-linejoin="round"/>
<path d="M5.73438 3.39746L12.3747 7.03191V10.6882" stroke="#2B2B2B" stroke-linecap="round" stroke-linejoin="round"/>
</svg>
