<svg width="21" height="20" viewBox="0 0 21 20" fill="none" xmlns="http://www.w3.org/2000/svg">
<path d="M5.15459 15.7453C4.43584 15.0266 4.9124 13.5164 4.54678 12.632C4.16709 11.7188 2.7749 10.9766 2.7749 10C2.7749 9.02344 4.16709 8.28125 4.54678 7.36797C4.9124 6.48437 4.43584 4.97344 5.15459 4.25469C5.87334 3.53594 7.38428 4.0125 8.26787 3.64688C9.18506 3.26719 9.92334 1.875 10.8999 1.875C11.8765 1.875 12.6187 3.26719 13.5319 3.64688C14.4163 4.0125 15.9265 3.53594 16.6452 4.25469C17.364 4.97344 16.8874 6.48359 17.253 7.36797C17.6327 8.28516 19.0249 9.02344 19.0249 10C19.0249 10.9766 17.6327 11.7188 17.253 12.632C16.8874 13.5164 17.364 15.0266 16.6452 15.7453C15.9265 16.4641 14.4163 15.9875 13.5319 16.3531C12.6187 16.7328 11.8765 18.125 10.8999 18.125C9.92334 18.125 9.18115 16.7328 8.26787 16.3531C7.38428 15.9875 5.87334 16.4641 5.15459 15.7453Z" stroke="#6B7280" stroke-linecap="round" stroke-linejoin="round"/>
<path d="M8.3999 8.75C9.09026 8.75 9.6499 8.19036 9.6499 7.5C9.6499 6.80964 9.09026 6.25 8.3999 6.25C7.70955 6.25 7.1499 6.80964 7.1499 7.5C7.1499 8.19036 7.70955 8.75 8.3999 8.75Z" stroke="#6B7280" stroke-linecap="round" stroke-linejoin="round"/>
<path d="M13.3999 13.75C14.0903 13.75 14.6499 13.1904 14.6499 12.5C14.6499 11.8096 14.0903 11.25 13.3999 11.25C12.7095 11.25 12.1499 11.8096 12.1499 12.5C12.1499 13.1904 12.7095 13.75 13.3999 13.75Z" stroke="#6B7280" stroke-linecap="round" stroke-linejoin="round"/>
<path d="M7.7749 13.125L14.0249 6.875" stroke="#6B7280" stroke-linecap="round" stroke-linejoin="round"/>
</svg>
