<svg width="21" height="20" viewBox="0 0 21 20" fill="none" xmlns="http://www.w3.org/2000/svg">
<path d="M8.40039 8.125C8.27678 8.125 8.15594 8.08834 8.05316 8.01967C7.95038 7.95099 7.87027 7.85338 7.82297 7.73918C7.77566 7.62497 7.76328 7.49931 7.7874 7.37807C7.81152 7.25683 7.87104 7.14547 7.95845 7.05806C8.04586 6.97065 8.15722 6.91112 8.27846 6.88701C8.3997 6.86289 8.52536 6.87527 8.63957 6.92257C8.75377 6.96988 8.85138 7.04999 8.92006 7.15277C8.98874 7.25555 9.02539 7.37639 9.02539 7.5C9.02539 7.66576 8.95954 7.82473 8.84233 7.94194C8.72512 8.05915 8.56615 8.125 8.40039 8.125ZM13.4004 11.875C13.2768 11.875 13.1559 11.9117 13.0532 11.9803C12.9504 12.049 12.8703 12.1466 12.823 12.2608C12.7757 12.375 12.7633 12.5007 12.7874 12.6219C12.8115 12.7432 12.871 12.8545 12.9584 12.9419C13.0459 13.0294 13.1572 13.0889 13.2785 13.113C13.3997 13.1371 13.5254 13.1247 13.6396 13.0774C13.7538 13.0301 13.8514 12.95 13.9201 12.8472C13.9887 12.7445 14.0254 12.6236 14.0254 12.5C14.0254 12.3342 13.9595 12.1753 13.8423 12.0581C13.7251 11.9408 13.5662 11.875 13.4004 11.875ZM19.6504 10C19.6504 10.8156 19.0637 11.4273 18.5457 11.9672C18.2512 12.275 17.9465 12.5922 17.8316 12.8711C17.7254 13.1266 17.7191 13.55 17.7129 13.9602C17.7012 14.7227 17.6887 15.5867 17.0879 16.1875C16.4871 16.7883 15.623 16.8008 14.8605 16.8125C14.4504 16.8187 14.027 16.825 13.7715 16.9312C13.4926 17.0461 13.1754 17.3508 12.8676 17.6453C12.3277 18.1633 11.716 18.75 10.9004 18.75C10.0848 18.75 9.47305 18.1633 8.9332 17.6453C8.62539 17.3508 8.3082 17.0461 8.0293 16.9312C7.77383 16.825 7.35039 16.8187 6.94023 16.8125C6.17773 16.8008 5.31367 16.7883 4.71289 16.1875C4.11211 15.5867 4.09961 14.7227 4.08789 13.9602C4.08164 13.55 4.07539 13.1266 3.96914 12.8711C3.8543 12.5922 3.54961 12.275 3.25508 11.9672C2.73711 11.4273 2.15039 10.8156 2.15039 10C2.15039 9.18437 2.73711 8.57266 3.25508 8.03281C3.54961 7.725 3.8543 7.40781 3.96914 7.12891C4.07539 6.87344 4.08164 6.45 4.08789 6.03984C4.09961 5.27734 4.11211 4.41328 4.71289 3.8125C5.31367 3.21172 6.17773 3.19922 6.94023 3.1875C7.35039 3.18125 7.77383 3.175 8.0293 3.06875C8.3082 2.95391 8.62539 2.64922 8.9332 2.35469C9.47305 1.83672 10.0848 1.25 10.9004 1.25C11.716 1.25 12.3277 1.83672 12.8676 2.35469C13.1754 2.64922 13.4926 2.95391 13.7715 3.06875C14.027 3.175 14.4504 3.18125 14.8605 3.1875C15.623 3.19922 16.4871 3.21172 17.0879 3.8125C17.6887 4.41328 17.7012 5.27734 17.7129 6.03984C17.7191 6.45 17.7254 6.87344 17.8316 7.12891C17.9465 7.40781 18.2512 7.725 18.5457 8.03281C19.0637 8.57266 19.6504 9.18437 19.6504 10ZM8.40039 9.375C8.77123 9.375 9.13374 9.26503 9.44208 9.05901C9.75043 8.85298 9.99075 8.56014 10.1327 8.21753C10.2746 7.87492 10.3117 7.49792 10.2394 7.13421C10.167 6.77049 9.98844 6.4364 9.72622 6.17417C9.46399 5.91195 9.1299 5.73337 8.76618 5.66103C8.40247 5.58868 8.02547 5.62581 7.68286 5.76773C7.34025 5.90964 7.04741 6.14996 6.84139 6.45831C6.63536 6.76665 6.52539 7.12916 6.52539 7.5C6.52539 7.99728 6.72293 8.47419 7.07456 8.82583C7.4262 9.17746 7.90311 9.375 8.40039 9.375ZM14.4676 7.31719C14.5256 7.25912 14.5717 7.19018 14.6031 7.11431C14.6346 7.03844 14.6507 6.95712 14.6507 6.875C14.6507 6.79288 14.6346 6.71156 14.6031 6.63569C14.5717 6.55982 14.5256 6.49088 14.4676 6.43281C14.4095 6.37474 14.3406 6.32868 14.2647 6.29725C14.1888 6.26583 14.1075 6.24965 14.0254 6.24965C13.9433 6.24965 13.862 6.26583 13.7861 6.29725C13.7102 6.32868 13.6413 6.37474 13.5832 6.43281L7.3332 12.6828C7.27513 12.7409 7.22907 12.8098 7.19764 12.8857C7.16622 12.9616 7.15004 13.0429 7.15004 13.125C7.15004 13.2071 7.16622 13.2884 7.19764 13.3643C7.22907 13.4402 7.27513 13.5091 7.3332 13.5672C7.45048 13.6845 7.60954 13.7503 7.77539 13.7503C7.85751 13.7503 7.93883 13.7342 8.0147 13.7027C8.09057 13.6713 8.15951 13.6253 8.21758 13.5672L14.4676 7.31719ZM15.2754 12.5C15.2754 12.1292 15.1654 11.7666 14.9594 11.4583C14.7534 11.15 14.4605 10.9096 14.1179 10.7677C13.7753 10.6258 13.3983 10.5887 13.0346 10.661C12.6709 10.7334 12.3368 10.912 12.0746 11.1742C11.8123 11.4364 11.6338 11.7705 11.5614 12.1342C11.4891 12.4979 11.5262 12.8749 11.6681 13.2175C11.81 13.5601 12.0504 13.853 12.3587 14.059C12.667 14.265 13.0296 14.375 13.4004 14.375C13.8977 14.375 14.3746 14.1775 14.7262 13.8258C15.0778 13.4742 15.2754 12.9973 15.2754 12.5Z" fill="#DB2963"/>
</svg>
