<svg width="21" height="20" viewBox="0 0 21 20" fill="none" xmlns="http://www.w3.org/2000/svg">
<path d="M4.59844 15.7453C3.87969 15.0266 4.35625 13.5164 3.99063 12.632C3.61094 11.7188 2.21875 10.9766 2.21875 10C2.21875 9.02344 3.61094 8.28125 3.99063 7.36797C4.35625 6.48437 3.87969 4.97344 4.59844 4.25469C5.31719 3.53594 6.82812 4.0125 7.71172 3.64688C8.62891 3.26719 9.36719 1.875 10.3438 1.875C11.3203 1.875 12.0625 3.26719 12.9758 3.64688C13.8602 4.0125 15.3703 3.53594 16.0891 4.25469C16.8078 4.97344 16.3313 6.48359 16.6969 7.36797C17.0766 8.28516 18.4688 9.02344 18.4688 10C18.4688 10.9766 17.0766 11.7188 16.6969 12.632C16.3313 13.5164 16.8078 15.0266 16.0891 15.7453C15.3703 16.4641 13.8602 15.9875 12.9758 16.3531C12.0625 16.7328 11.3203 18.125 10.3438 18.125C9.36719 18.125 8.625 16.7328 7.71172 16.3531C6.82812 15.9875 5.31719 16.4641 4.59844 15.7453Z" stroke="white" stroke-linecap="round" stroke-linejoin="round"/>
<path d="M7.84375 8.75C8.53411 8.75 9.09375 8.19036 9.09375 7.5C9.09375 6.80964 8.53411 6.25 7.84375 6.25C7.15339 6.25 6.59375 6.80964 6.59375 7.5C6.59375 8.19036 7.15339 8.75 7.84375 8.75Z" stroke="white" stroke-linecap="round" stroke-linejoin="round"/>
<path d="M12.8438 13.75C13.5341 13.75 14.0938 13.1904 14.0938 12.5C14.0938 11.8096 13.5341 11.25 12.8438 11.25C12.1534 11.25 11.5938 11.8096 11.5938 12.5C11.5938 13.1904 12.1534 13.75 12.8438 13.75Z" stroke="white" stroke-linecap="round" stroke-linejoin="round"/>
<path d="M7.21875 13.125L13.4688 6.875" stroke="white" stroke-linecap="round" stroke-linejoin="round"/>
</svg>
