<svg width="18" height="18" viewBox="0 0 18 18" fill="none" xmlns="http://www.w3.org/2000/svg">
<path d="M3.82922 14.1708C3.18234 13.5239 3.61125 12.1648 3.28219 11.3688C2.94047 10.5469 1.6875 9.87891 1.6875 9C1.6875 8.12109 2.94047 7.45313 3.28219 6.63117C3.61125 5.83594 3.18234 4.47609 3.82922 3.82922C4.47609 3.18234 5.83594 3.61125 6.63117 3.28219C7.45664 2.94047 8.12109 1.6875 9 1.6875C9.87891 1.6875 10.5469 2.94047 11.3688 3.28219C12.1648 3.61125 13.5239 3.18234 14.1708 3.82922C14.8177 4.47609 14.3888 5.83523 14.7178 6.63117C15.0595 7.45664 16.3125 8.12109 16.3125 9C16.3125 9.87891 15.0595 10.5469 14.7178 11.3688C14.3888 12.1648 14.8177 13.5239 14.1708 14.1708C13.5239 14.8177 12.1648 14.3888 11.3688 14.7178C10.5469 15.0595 9.87891 16.3125 9 16.3125C8.12109 16.3125 7.45313 15.0595 6.63117 14.7178C5.83594 14.3888 4.47609 14.8177 3.82922 14.1708Z" stroke="#111827" stroke-linecap="round" stroke-linejoin="round"/>
<path d="M6.75 7.875C7.37132 7.875 7.875 7.37132 7.875 6.75C7.875 6.12868 7.37132 5.625 6.75 5.625C6.12868 5.625 5.625 6.12868 5.625 6.75C5.625 7.37132 6.12868 7.875 6.75 7.875Z" stroke="#111827" stroke-linecap="round" stroke-linejoin="round"/>
<path d="M11.25 12.375C11.8713 12.375 12.375 11.8713 12.375 11.25C12.375 10.6287 11.8713 10.125 11.25 10.125C10.6287 10.125 10.125 10.6287 10.125 11.25C10.125 11.8713 10.6287 12.375 11.25 12.375Z" stroke="#2B2B2B" stroke-linecap="round" stroke-linejoin="round"/>
<path d="M6.1875 11.8125L11.8125 6.1875" stroke="#2B2B2B" stroke-linecap="round" stroke-linejoin="round"/>
</svg>
