<svg width="20" height="21" viewBox="0 0 20 21" fill="none" xmlns="http://www.w3.org/2000/svg">
<path d="M10.0003 12.9993C11.381 12.9993 12.5003 11.8801 12.5003 10.4993C12.5003 9.11864 11.381 7.99935 10.0003 7.99935C8.61961 7.99935 7.50032 9.11864 7.50032 10.4993C7.50032 11.8801 8.61961 12.9993 10.0003 12.9993Z" stroke="#111827" stroke-linecap="round" stroke-linejoin="round"/>
<path d="M15.6064 12.7721C15.5055 13.0006 15.4755 13.254 15.52 13.4998C15.5646 13.7455 15.6817 13.9723 15.8564 14.1509L15.9018 14.1963C16.0427 14.337 16.1545 14.5041 16.2307 14.6881C16.307 14.872 16.3462 15.0692 16.3462 15.2683C16.3462 15.4674 16.307 15.6646 16.2307 15.8485C16.1545 16.0324 16.0427 16.1995 15.9018 16.3403C15.7611 16.4811 15.594 16.5929 15.4101 16.6691C15.2261 16.7454 15.029 16.7846 14.8299 16.7846C14.6308 16.7846 14.4336 16.7454 14.2497 16.6691C14.0657 16.5929 13.8986 16.4811 13.7579 16.3403L13.7124 16.2948C13.5339 16.1202 13.3071 16.003 13.0614 15.9584C12.8156 15.9139 12.5622 15.944 12.3337 16.0448C12.1096 16.1408 11.9185 16.3003 11.7839 16.5035C11.6493 16.7068 11.5771 16.945 11.5761 17.1887V17.3175C11.5761 17.7194 11.4164 18.1048 11.1323 18.3889C10.8482 18.673 10.4628 18.8327 10.0609 18.8327C9.65909 18.8327 9.2737 18.673 8.98956 18.3889C8.70541 18.1048 8.54578 17.7194 8.54578 17.3175V17.2493C8.53991 16.9986 8.45875 16.7554 8.31283 16.5514C8.16692 16.3474 7.963 16.192 7.7276 16.1054C7.4991 16.0046 7.24563 15.9745 6.99988 16.019C6.75412 16.0636 6.52735 16.1808 6.34881 16.3554L6.30335 16.4009C6.16264 16.5417 5.99553 16.6535 5.8116 16.7297C5.62766 16.806 5.4305 16.8452 5.23139 16.8452C5.03227 16.8452 4.83511 16.806 4.65117 16.7297C4.46724 16.6535 4.30013 16.5417 4.15942 16.4009C4.01854 16.2601 3.90679 16.093 3.83054 15.9091C3.75429 15.7252 3.71504 15.528 3.71504 15.3289C3.71504 15.1298 3.75429 14.9326 3.83054 14.7487C3.90679 14.5647 4.01854 14.3976 4.15942 14.2569L4.20487 14.2115C4.37952 14.0329 4.49668 13.8062 4.54124 13.5604C4.5858 13.3146 4.55572 13.0612 4.45487 12.8327C4.35884 12.6086 4.19938 12.4175 3.99613 12.2829C3.79288 12.1483 3.55471 12.0761 3.31093 12.0751H3.18214C2.7803 12.0751 2.39492 11.9155 2.11077 11.6313C1.82662 11.3472 1.66699 10.9618 1.66699 10.56C1.66699 10.1581 1.82662 9.77273 2.11077 9.48858C2.39492 9.20443 2.7803 9.0448 3.18214 9.0448H3.25033C3.50108 9.03894 3.74427 8.95777 3.94828 8.81186C4.15229 8.66594 4.30769 8.46203 4.39426 8.22662C4.49511 7.99812 4.52519 7.74466 4.48063 7.4989C4.43607 7.25315 4.31891 7.02638 4.14426 6.84783L4.09881 6.80238C3.95794 6.66166 3.84618 6.49456 3.76993 6.31062C3.69368 6.12669 3.65444 5.92952 3.65444 5.73041C3.65444 5.53129 3.69368 5.33413 3.76993 5.1502C3.84618 4.96626 3.95794 4.79916 4.09881 4.65844C4.23953 4.51757 4.40663 4.40581 4.59057 4.32956C4.7745 4.25331 4.97167 4.21407 5.17078 4.21407C5.36989 4.21407 5.56706 4.25331 5.75099 4.32956C5.93493 4.40581 6.10203 4.51757 6.24275 4.65844L6.2882 4.70389C6.46675 4.87854 6.69352 4.9957 6.93927 5.04026C7.18503 5.08482 7.43849 5.05474 7.66699 4.95389H7.7276C7.95166 4.85786 8.14276 4.69841 8.27736 4.49516C8.41197 4.29191 8.4842 4.05373 8.48517 3.80995V3.68117C8.48517 3.27932 8.6448 2.89394 8.92895 2.60979C9.2131 2.32565 9.59848 2.16602 10.0003 2.16602C10.4022 2.16602 10.7876 2.32565 11.0717 2.60979C11.3558 2.89394 11.5155 3.27932 11.5155 3.68117V3.74935C11.5164 3.99313 11.5887 4.2313 11.7233 4.43455C11.8579 4.6378 12.049 4.79726 12.2731 4.89329C12.5015 4.99413 12.755 5.02421 13.0008 4.97965C13.2465 4.9351 13.4733 4.81794 13.6518 4.64329L13.6973 4.59783C13.838 4.45696 14.0051 4.3452 14.1891 4.26896C14.373 4.19271 14.5701 4.15346 14.7693 4.15346C14.9684 4.15346 15.1655 4.19271 15.3495 4.26896C15.5334 4.3452 15.7005 4.45696 15.8412 4.59783C15.9821 4.73855 16.0939 4.90565 16.1701 5.08959C16.2464 5.27353 16.2856 5.47069 16.2856 5.6698C16.2856 5.86892 16.2464 6.06608 16.1701 6.25002C16.0939 6.43395 15.9821 6.60106 15.8412 6.74177L15.7958 6.78723C15.6211 6.96577 15.504 7.19254 15.4594 7.4383C15.4149 7.68405 15.4449 7.93752 15.5458 8.16601V8.22662C15.6418 8.45069 15.8013 8.64179 16.0045 8.77639C16.2078 8.91099 16.4459 8.98322 16.6897 8.9842H16.8185C17.2203 8.9842 17.6057 9.14383 17.8899 9.42797C18.174 9.71212 18.3337 10.0975 18.3337 10.4993C18.3337 10.9012 18.174 11.2866 17.8899 11.5707C17.6057 11.8549 17.2203 12.0145 16.8185 12.0145H16.7503C16.5065 12.0155 16.2684 12.0877 16.0651 12.2223C15.8619 12.3569 15.7024 12.548 15.6064 12.7721Z" stroke="#111827" stroke-linecap="round" stroke-linejoin="round"/>
</svg>
