<svg width="20" height="21" viewBox="0 0 20 21" fill="none" xmlns="http://www.w3.org/2000/svg">
<path d="M16.875 4.25H3.125C2.77982 4.25 2.5 4.52982 2.5 4.875V16.125C2.5 16.4702 2.77982 16.75 3.125 16.75H16.875C17.2202 16.75 17.5 16.4702 17.5 16.125V4.875C17.5 4.52982 17.2202 4.25 16.875 4.25Z" stroke="#111827" stroke-linecap="round" stroke-linejoin="round"/>
<path d="M2.5 6.75H17.5" stroke="#111827" stroke-linecap="round" stroke-linejoin="round"/>
<path d="M13.125 9.25C13.125 10.0788 12.7958 10.8737 12.2097 11.4597C11.6237 12.0458 10.8288 12.375 10 12.375C9.1712 12.375 8.37634 12.0458 7.79029 11.4597C7.20424 10.8737 6.875 10.0788 6.875 9.25" stroke="#111827" stroke-linecap="round" stroke-linejoin="round"/>
</svg>
