<svg width="21" height="20" viewBox="0 0 21 20" fill="none" xmlns="http://www.w3.org/2000/svg">
<path d="M8.2251 3.75H4.4751C4.12992 3.75 3.8501 4.02982 3.8501 4.375V8.125C3.8501 8.47018 4.12992 8.75 4.4751 8.75H8.2251C8.57028 8.75 8.8501 8.47018 8.8501 8.125V4.375C8.8501 4.02982 8.57028 3.75 8.2251 3.75Z" stroke="#6B7280" stroke-linecap="round" stroke-linejoin="round"/>
<path d="M15.7251 3.75H11.9751C11.6299 3.75 11.3501 4.02982 11.3501 4.375V8.125C11.3501 8.47018 11.6299 8.75 11.9751 8.75H15.7251C16.0703 8.75 16.3501 8.47018 16.3501 8.125V4.375C16.3501 4.02982 16.0703 3.75 15.7251 3.75Z" stroke="#6B7280" stroke-linecap="round" stroke-linejoin="round"/>
<path d="M8.2251 11.25H4.4751C4.12992 11.25 3.8501 11.5298 3.8501 11.875V15.625C3.8501 15.9702 4.12992 16.25 4.4751 16.25H8.2251C8.57028 16.25 8.8501 15.9702 8.8501 15.625V11.875C8.8501 11.5298 8.57028 11.25 8.2251 11.25Z" stroke="#6B7280" stroke-linecap="round" stroke-linejoin="round"/>
<path d="M15.7251 11.25H11.9751C11.6299 11.25 11.3501 11.5298 11.3501 11.875V15.625C11.3501 15.9702 11.6299 16.25 11.9751 16.25H15.7251C16.0703 16.25 16.3501 15.9702 16.3501 15.625V11.875C16.3501 11.5298 16.0703 11.25 15.7251 11.25Z" stroke="#6B7280" stroke-linecap="round" stroke-linejoin="round"/>
</svg>
