<svg width="21" height="21" viewBox="0 0 21 21" fill="none" xmlns="http://www.w3.org/2000/svg">
<path d="M19.0296 7.23893C19.0296 7.24752 19.0296 7.25534 19.0242 7.26393L17.2523 15.3788C17.1978 15.6645 17.0453 15.9223 16.8211 16.1077C16.5969 16.2931 16.3151 16.3945 16.0242 16.3944H4.57339C4.28262 16.3943 4.00099 16.2928 3.77697 16.1074C3.55295 15.9221 3.40057 15.6644 3.34605 15.3788L1.57418 7.26393C1.57418 7.25534 1.57027 7.24752 1.56871 7.23893C1.52021 6.97026 1.56101 6.6931 1.68487 6.4498C1.80873 6.2065 2.00884 6.01044 2.25462 5.89158C2.5004 5.77272 2.77834 5.73759 3.04596 5.79157C3.31359 5.84555 3.55618 5.98566 3.73668 6.19049L6.36714 9.02565L9.16402 2.75299C9.16415 2.75039 9.16415 2.74778 9.16402 2.74518C9.26403 2.52826 9.4241 2.34454 9.62527 2.21577C9.82645 2.08699 10.0603 2.01855 10.2992 2.01855C10.538 2.01855 10.7719 2.08699 10.9731 2.21577C11.1743 2.34454 11.3343 2.52826 11.4343 2.74518C11.4342 2.74778 11.4342 2.75039 11.4343 2.75299L14.2312 9.02565L16.8617 6.19049C17.0425 5.98718 17.2848 5.84844 17.5517 5.79534C17.8186 5.74225 18.0955 5.7777 18.3404 5.89631C18.5854 6.01492 18.7849 6.21022 18.9087 6.45254C19.0325 6.69485 19.0739 6.97096 19.0265 7.23893H19.0296Z" fill="url(#paint0_linear_8653_18524)"/>
<defs>
<linearGradient id="paint0_linear_8653_18524" x1="1.29883" y1="6.14404" x2="16.4654" y2="15.8847" gradientUnits="userSpaceOnUse">
<stop offset="0.0611994" stop-color="#1A1A1A"/>
<stop offset="0.234831" stop-color="#9C9C9C"/>
<stop offset="0.420921" stop-color="#504E4E"/>
</linearGradient>
</defs>
</svg>
