<svg width="21" height="21" viewBox="0 0 21 21" fill="none" xmlns="http://www.w3.org/2000/svg">
<path d="M17.2008 10.704L17.1837 10.5261L17.1584 10.3364L17.1132 10.1612L17.059 9.98594L16.9886 9.81071L16.9127 9.63819L16.8106 9.47742L16.7004 9.31302L16.5767 9.15496L16.4322 9.00502L16.3418 8.92644L16.2343 8.84424L16.1332 8.76476L16.023 8.68617L15.9074 8.6103L15.7881 8.53353L15.6527 8.45765L15.5199 8.38449L15.3645 8.30862L15.2155 8.23546L15.0403 8.16229L14.8596 8.09184L14.6735 8.01506L14.4667 7.94642L14.2382 7.87597L14.0042 7.80551L13.7558 7.73416L13.4876 7.66009L13.2022 7.59235L12.8887 7.51106L12.5861 7.41983L12.298 7.32408L12.0234 7.22744L11.7588 7.1344L11.5013 7.0495L11.2493 6.95917L11.0064 6.87427L10.7833 6.78394L10.5719 6.68188L10.3768 6.57168L10.1989 6.45878L10.0408 6.33684L9.88816 6.20406L9.76983 6.06858L9.68222 5.96922L9.60002 5.86173L9.54041 5.74341L9.48441 5.62147L9.43654 5.4914L9.39679 5.35592L9.37421 5.2123L9.36337 5.06146L9.37421 4.91243L9.40221 4.76249L9.44196 4.61887L9.50428 4.47435L9.57202 4.34158L9.65693 4.21151L9.75809 4.09228L9.86287 3.97125L9.99564 3.86105L10.123 3.75447L10.3118 3.62621L10.4897 3.52775L10.6731 3.43382L10.8682 3.36065L11.0606 3.29923L11.2502 3.25407L11.4481 3.22246L11.6423 3.20891L11.8374 3.19988L12.0659 3.20891L12.2944 3.2333L12.5347 3.27575L12.7659 3.33446L13.0007 3.4022L13.2211 3.49253L13.4379 3.58376L13.6583 3.69666L13.876 3.81589L14.0792 3.94234L14.2797 4.08686L14.4775 4.23319L14.6609 4.38674L14.8388 4.55655L15.0059 4.72274L15.1676 4.90068L15.2661 4.99643L15.3537 5.10933L15.444 5.22585L15.5316 5.35592L15.6021 5.4914L15.6779 5.63231L15.7547 5.77683L15.8198 5.91502L15.8758 6.05954L15.9299 6.20316L15.9805 6.34136L16.023 6.47413L16.06 6.59878L16.0907 6.7171L16.1133 6.83001L16.1305 6.92124L16.1359 7.00885V7.08472L16.3617 7.08743V3.36517H16.1413L16.1133 3.50246L16.0853 3.57834L16.0564 3.65782L16.023 3.7346L15.986 3.81408L15.9471 3.88724L15.9074 3.95589L15.8649 4.02363L15.8198 4.07964L15.7656 4.1248L15.7059 4.16183L15.6436 4.18712L15.5786 4.20428L15.4964 4.20699H15.4205L15.3302 4.18712L15.2399 4.15912L15.1324 4.11667L15.0312 4.0688L14.9264 4.00286L14.8163 3.94325L14.7178 3.88454L14.613 3.82221L14.5082 3.76531L14.4233 3.71473L14.2228 3.61356L13.8642 3.4293L13.6773 3.33898L13.5029 3.26039L13.3277 3.18723L13.1353 3.11588L12.9547 3.05716L12.765 3.00929L12.5654 2.96955L12.3585 2.93884L12.1499 2.92439L11.7859 2.90723L11.6079 2.90994L11.4219 2.92168L11.2322 2.93342L11.0488 2.95239L10.8682 2.98491L10.6731 3.01562L10.5006 3.05536L10.3226 3.10052L10.1393 3.15923L9.97035 3.21885L9.80054 3.28659L9.63164 3.36246L9.47628 3.44466L9.3146 3.53769L9.17369 3.63434L9.03279 3.74453L8.8973 3.85834L8.76994 3.97938L8.65433 4.10944L8.54142 4.25035L8.44207 4.39125L8.34903 4.55293L8.26503 4.711L8.20271 4.89165L8.14309 5.07591L8.09793 5.26198L8.0618 5.46882L8.04193 5.68109L8.0329 5.89877L8.04735 6.14987L7.93173 6.14716L7.74838 6.14987L7.56411 6.1589L7.38076 6.17335L7.18837 6.19322L7.00772 6.22393L6.82617 6.25193L6.64281 6.29439L6.46758 6.34497L6.29235 6.39645L6.11441 6.45516L5.94731 6.52923L5.78924 6.59968L5.62576 6.6873L5.47311 6.78123L5.32046 6.87969L5.18497 6.98446L5.04678 7.09737L4.92303 7.21569L4.8011 7.34305L4.69632 7.48667L4.59516 7.63751L4.50212 7.79016L4.42264 7.95093L4.35489 8.12887L4.29257 8.31494L4.24741 8.50191L4.21941 8.70514L4.19954 8.9165L4.19141 9.13689L4.19954 9.32386L4.22212 9.50722L4.25644 9.69148L4.30702 9.86942L4.37476 10.0383L4.45696 10.2108L4.5527 10.3752L4.66561 10.5333L4.78664 10.6923L4.93116 10.8395L5.08381 10.9831L5.25001 11.1213L5.43607 11.2541L5.63118 11.3733L5.83711 11.4925L6.06925 11.6027L6.31222 11.7075L6.56422 11.8006L6.8072 11.8818L7.06372 11.9758L7.32656 12.0598L7.60024 12.1591L7.89109 12.2612L8.19368 12.3542L8.50439 12.4536L8.83859 12.5502L9.18634 12.6433L9.45189 12.7137L9.7057 12.7851L9.93693 12.8501L10.1519 12.9215L10.3606 12.9946L10.5502 13.0705L10.7164 13.1473L10.8799 13.2259L11.0217 13.2972L11.1572 13.3876L11.2728 13.467L11.383 13.5547L11.4986 13.673L11.6143 13.7859L11.71 13.8961L11.7868 14.0036L11.8572 14.1165L11.9168 14.2321L11.9593 14.3504L11.9954 14.4805L12.0126 14.616L12.0207 14.7578L12.0234 14.9095L12.0207 15.0685L12.018 15.213L12.0099 15.3539L11.9954 15.4894L11.9647 15.6249L11.9277 15.745L11.8771 15.8661L11.8175 15.9844L11.7416 16.0946L11.6621 16.2075L11.5519 16.3123L11.4363 16.4143L11.2837 16.5281L11.1346 16.6185L10.9621 16.6997L10.7986 16.7711L10.618 16.8307L10.4256 16.8705L10.2368 16.9066L10.0101 16.9382L9.79061 16.9581L9.57835 16.9662L9.38596 16.9635L9.20531 16.9517L9.04092 16.9346L8.88285 16.912L8.74194 16.8804L8.62362 16.8497L8.3969 16.7819L8.284 16.7422L8.18013 16.6997L8.07535 16.66L7.9769 16.6175L7.89199 16.5751L7.8098 16.5381L7.73121 16.5046L7.6156 16.4369L7.57044 16.4107L7.5334 16.3908L7.51082 16.3854L7.50269 16.3827L7.23443 16.2328L6.95714 16.0512L6.81081 15.9473L6.65816 15.8308L6.5281 15.7215L6.39261 15.6113L6.27699 15.4957L6.15777 15.3819L6.05028 15.269L5.9455 15.1615L5.84705 15.0622L5.76486 14.9574L5.68537 14.8635L5.61492 14.7822L5.55621 14.7027L5.50472 14.6322L5.45956 14.5789L5.42885 14.5311L5.40085 14.494L5.38369 14.4742L5.38098 14.4687L5.25633 14.2709L5.15155 14.0758L5.05491 13.8834L4.97361 13.7028L4.90316 13.5276L4.83542 13.3605L4.77851 13.1997L4.73064 13.0416L4.68819 12.8917L4.64845 12.7562L4.6087 12.6261L4.57257 12.5015L4.53283 12.3804L4.26728 12.3714L4.27902 17.332L4.62948 17.3438L4.63219 17.2616L4.64393 17.1884L4.6638 17.1035L4.68909 17.0159L4.71709 16.9228L4.75413 16.8325L4.79658 16.7386L4.84445 16.6483L4.90677 16.5552L4.9682 16.4757L5.03955 16.3881L5.11542 16.3177L5.20304 16.2463L5.29336 16.1867L5.39182 16.1388L5.49659 16.1027L5.6095 16.0765L5.73053 16.063H5.83531L5.95363 16.0765L6.07557 16.0991L6.20293 16.1388L6.33209 16.193L6.46758 16.2617L6.61481 16.343L6.80087 16.4477L6.97068 16.5498L7.1423 16.6401L7.30669 16.7214L7.31211 16.7241L7.33469 16.7386L7.36901 16.7585L7.41689 16.7837L7.47289 16.8235L7.63457 16.8994L7.72489 16.9418L7.83599 16.9924L7.95432 17.0403L8.07264 17.089L8.21084 17.1342L8.35174 17.1848L8.50168 17.2245L8.65975 17.267L8.82414 17.3004L9.00117 17.3284L9.1764 17.3573L9.35705 17.3763L9.55215 17.3826H9.74454L9.93964 17.3736L10.1375 17.3537L10.3497 17.3149L10.5584 17.2751L10.767 17.2128L10.9675 17.145L11.1744 17.0692L11.3722 16.9788L11.5592 16.8795L11.7398 16.7702L11.9232 16.651L12.0839 16.5236L12.2501 16.3854L12.4001 16.2391L12.5446 16.0892L12.6801 15.9302L12.8038 15.7667L12.914 15.6005L13.0188 15.4244L13.1064 15.241L13.1796 15.0486L13.2446 14.8616L13.2925 14.6638L13.3295 14.4669L13.3494 14.2664V14.074L13.6601 14.0514L13.9735 14.0117L14.2906 13.9584L14.5986 13.8988L14.8948 13.8175L15.0701 13.7859L15.2453 13.7299L15.4115 13.6676L15.5786 13.5881L15.7312 13.5068L15.8776 13.402L16.0248 13.2954L16.1603 13.1771L16.2958 13.0525L16.4204 12.917L16.5333 12.7788L16.6399 12.6315L16.7365 12.4762L16.8323 12.3118L16.9172 12.1537L16.9849 11.9794L17.0473 11.8033L17.1006 11.6253L17.1457 11.4501L17.1764 11.264L17.1963 11.0798L17.2053 10.8937L17.2026 10.7094L17.2008 10.704ZM15.8667 11.8267L15.8613 11.9776L15.8523 12.1185L15.8324 12.2567L15.8044 12.385L15.7647 12.5123L15.7168 12.6342L15.6581 12.7472L15.5813 12.8601L15.4964 12.973L15.3916 13.0777L15.276 13.1771L15.0981 13.3045L14.9147 13.4255L14.7223 13.5303L14.5101 13.6206L14.296 13.7028L14.0729 13.7678L13.8353 13.8184L13.5869 13.8636L13.3413 13.8943L13.316 13.7163L13.2789 13.5321L13.2256 13.346L13.1552 13.1563L13.0784 12.9757L12.98 12.7941L12.8616 12.6108L12.7397 12.4238L12.5843 12.2431L12.4967 12.1609L12.3919 12.0842L12.2872 12.0056L12.1824 11.9261L12.0577 11.8475L11.9503 11.7707L11.8094 11.6949L11.6766 11.6217L11.5212 11.5458L11.3713 11.4718L11.1961 11.4004L11.0118 11.3245L10.8257 11.2532L10.6171 11.18L10.3913 11.1087L10.1537 11.0409L9.90803 10.9678L9.63977 10.9L9.35434 10.8323L9.04092 10.7474L8.75007 10.6561L8.46284 10.5631L8.18826 10.4638L7.91999 10.3698L7.66347 10.2795L7.40876 10.1919L7.16398 10.1043L6.93184 10.0194L6.72591 9.9182L6.5308 9.81071L6.35558 9.69781L6.1948 9.57045L6.05389 9.44129L5.91841 9.30851L5.8335 9.20644L5.76576 9.09625L5.69801 8.98063L5.6384 8.85869L5.58782 8.72863L5.5544 8.59585L5.53453 8.45494L5.5255 8.3023L5.53453 8.14333L5.55711 7.99881L5.59685 7.85248L5.65556 7.71428L5.72873 7.5788L5.81363 7.44602L5.9157 7.32408L6.0286 7.20215L6.14964 7.09466L6.28512 6.98988L6.46035 6.86614L6.63829 6.76407L6.82707 6.67104L7.01675 6.59517L7.20011 6.53555L7.40063 6.4931L7.59302 6.45878L7.7818 6.43981L7.9769 6.43349H8.03922L8.09522 6.43981L8.14309 6.61143L8.21084 6.78665L8.28761 6.95646L8.38878 7.11995L8.49626 7.28073L8.62091 7.4397L8.76181 7.59235L8.91446 7.73687L9.08066 7.87777L9.26673 8.00784L9.46454 8.13158L9.6768 8.25352L9.8999 8.36372L10.1438 8.46849L10.3976 8.56153L10.6514 8.64643L10.9034 8.73405L11.1681 8.82708L11.4453 8.92644L11.7281 9.02218L12.0243 9.11883L12.3468 9.21547L12.6774 9.31122L13.0242 9.40154L13.2952 9.47561L13.5463 9.54335L13.7811 9.61471L13.9952 9.68787L14.202 9.76103L14.3881 9.83691L14.5579 9.91007L14.7214 9.98865L14.8623 10.06L14.9978 10.1413L15.1107 10.2262L15.2182 10.3138L15.3401 10.4303L15.453 10.546L15.5488 10.6534L15.6247 10.7663L15.6951 10.882L15.752 10.9922L15.7972 11.1105L15.8306 11.2387L15.8568 11.3742L15.8622 11.5151L15.8676 11.6705L15.8649 11.8258L15.8667 11.8267Z" fill="#231F20" stroke="#231F20" stroke-width="0.5" stroke-linejoin="round"/>
</svg>
