<svg width="21" height="21" viewBox="0 0 21 21" fill="none" xmlns="http://www.w3.org/2000/svg">
<path d="M17.8796 7.76844L10.506 15.5992C10.4662 15.6414 10.399 15.6411 10.3596 15.5984L3.1202 7.75063C3.08288 7.71018 3.08527 7.64718 3.12553 7.60967L6.31343 4.63917C6.33195 4.6219 6.35634 4.61231 6.38166 4.61233L14.6995 4.6174C14.7253 4.61741 14.7501 4.62739 14.7687 4.64525L17.876 7.62774C17.9156 7.66572 17.9172 7.7285 17.8796 7.76844Z" stroke="#6B7280"/>
<path d="M10.9676 8.19431L10.5847 7.04326C10.5544 6.95239 10.4261 6.95189 10.3951 7.04252L9.99699 8.20892C9.98694 8.23837 9.96375 8.26146 9.93427 8.27139L8.7837 8.65883C8.69268 8.68948 8.69299 8.81832 8.78415 8.84853L9.93933 9.23132C9.96928 9.24125 9.99279 9.26473 10.0028 9.29467L10.396 10.4762C10.4263 10.5674 10.5555 10.5674 10.5858 10.4761L10.9757 9.30073C10.9857 9.2707 11.0093 9.24716 11.0393 9.23725L12.216 8.84926C12.3071 8.81919 12.3077 8.6904 12.2167 8.65958L11.0304 8.25744C11.0008 8.24739 10.9775 8.22402 10.9676 8.19431Z" stroke="#6B7280" stroke-width="0.5"/>
</svg>
