<svg width="21" height="21" viewBox="0 0 21 21" fill="none" xmlns="http://www.w3.org/2000/svg">
<path d="M8.22461 3.89453H4.47461C4.12943 3.89453 3.84961 4.17435 3.84961 4.51953V8.26953C3.84961 8.61471 4.12943 8.89453 4.47461 8.89453H8.22461C8.56979 8.89453 8.84961 8.61471 8.84961 8.26953V4.51953C8.84961 4.17435 8.56979 3.89453 8.22461 3.89453Z" stroke="#6B7280" stroke-linecap="round" stroke-linejoin="round"/>
<path d="M15.7246 3.89453H11.9746C11.6294 3.89453 11.3496 4.17435 11.3496 4.51953V8.26953C11.3496 8.61471 11.6294 8.89453 11.9746 8.89453H15.7246C16.0698 8.89453 16.3496 8.61471 16.3496 8.26953V4.51953C16.3496 4.17435 16.0698 3.89453 15.7246 3.89453Z" stroke="#6B7280" stroke-linecap="round" stroke-linejoin="round"/>
<path d="M8.22461 11.3945H4.47461C4.12943 11.3945 3.84961 11.6744 3.84961 12.0195V15.7695C3.84961 16.1147 4.12943 16.3945 4.47461 16.3945H8.22461C8.56979 16.3945 8.84961 16.1147 8.84961 15.7695V12.0195C8.84961 11.6744 8.56979 11.3945 8.22461 11.3945Z" stroke="#6B7280" stroke-linecap="round" stroke-linejoin="round"/>
<path d="M15.7246 11.3945H11.9746C11.6294 11.3945 11.3496 11.6744 11.3496 12.0195V15.7695C11.3496 16.1147 11.6294 16.3945 11.9746 16.3945H15.7246C16.0698 16.3945 16.3496 16.1147 16.3496 15.7695V12.0195C16.3496 11.6744 16.0698 11.3945 15.7246 11.3945Z" stroke="#6B7280" stroke-linecap="round" stroke-linejoin="round"/>
</svg>
