<svg width="21" height="21" viewBox="0 0 21 21" fill="none" xmlns="http://www.w3.org/2000/svg">
<path d="M5.15312 15.8898C4.43437 15.1711 4.91094 13.6609 4.54531 12.7766C4.16563 11.8633 2.77344 11.1211 2.77344 10.1445C2.77344 9.16797 4.16563 8.42578 4.54531 7.5125C4.91094 6.62891 4.43437 5.11797 5.15312 4.39922C5.87187 3.68047 7.38281 4.15703 8.26641 3.79141C9.18359 3.41172 9.92188 2.01953 10.8984 2.01953C11.875 2.01953 12.6172 3.41172 13.5305 3.79141C14.4148 4.15703 15.925 3.68047 16.6437 4.39922C17.3625 5.11797 16.8859 6.62812 17.2516 7.5125C17.6313 8.42969 19.0234 9.16797 19.0234 10.1445C19.0234 11.1211 17.6313 11.8633 17.2516 12.7766C16.8859 13.6609 17.3625 15.1711 16.6437 15.8898C15.925 16.6086 14.4148 16.132 13.5305 16.4977C12.6172 16.8773 11.875 18.2695 10.8984 18.2695C9.92188 18.2695 9.17969 16.8773 8.26641 16.4977C7.38281 16.132 5.87187 16.6086 5.15312 15.8898Z" stroke="#6B7280" stroke-linecap="round" stroke-linejoin="round"/>
<path d="M8.39844 8.89453C9.08879 8.89453 9.64844 8.33489 9.64844 7.64453C9.64844 6.95418 9.08879 6.39453 8.39844 6.39453C7.70808 6.39453 7.14844 6.95418 7.14844 7.64453C7.14844 8.33489 7.70808 8.89453 8.39844 8.89453Z" stroke="#6B7280" stroke-linecap="round" stroke-linejoin="round"/>
<path d="M13.3984 13.8945C14.0888 13.8945 14.6484 13.3349 14.6484 12.6445C14.6484 11.9542 14.0888 11.3945 13.3984 11.3945C12.7081 11.3945 12.1484 11.9542 12.1484 12.6445C12.1484 13.3349 12.7081 13.8945 13.3984 13.8945Z" stroke="#6B7280" stroke-linecap="round" stroke-linejoin="round"/>
<path d="M7.77344 13.2695L14.0234 7.01953" stroke="#6B7280" stroke-linecap="round" stroke-linejoin="round"/>
</svg>
