<svg width="22" height="21" viewBox="0 0 22 21" fill="none" xmlns="http://www.w3.org/2000/svg">
<path d="M13.9284 11.1376L13.9112 10.9597L13.8859 10.77L13.8407 10.5948L13.7865 10.4195L13.7161 10.2443L13.6402 10.0718L13.5382 9.91101L13.428 9.74662L13.3042 9.58855L13.1597 9.43861L13.0694 9.36003L12.9619 9.27784L12.8607 9.19835L12.7505 9.11977L12.6349 9.0439L12.5157 8.96712L12.3802 8.89125L12.2474 8.81808L12.0921 8.74221L11.943 8.66905L11.7678 8.59589L11.5871 8.52543L11.4011 8.44866L11.1942 8.38001L10.9657 8.30956L10.7318 8.23911L10.4834 8.16775L10.2151 8.09368L9.92969 8.02594L9.61627 7.94465L9.31368 7.85342L9.02555 7.75768L8.75096 7.66103L8.48631 7.568L8.22889 7.48309L7.97688 7.39277L7.73391 7.30786L7.51081 7.21754L7.29945 7.11547L7.10435 7.00528L6.92641 6.89237L6.76834 6.77043L6.6157 6.63766L6.49737 6.50217L6.40976 6.40281L6.32756 6.29533L6.26795 6.177L6.21195 6.05506L6.16408 5.925L6.12433 5.78951L6.10175 5.6459L6.09091 5.49505L6.10175 5.34602L6.12975 5.19608L6.1695 5.05247L6.23182 4.90795L6.29956 4.77517L6.38447 4.6451L6.48563 4.52587L6.59041 4.40484L6.72318 4.29464L6.85054 4.18806L7.03932 4.0598L7.21726 3.96135L7.40061 3.86741L7.59572 3.79425L7.78811 3.73283L7.97779 3.68767L8.1756 3.65605L8.36979 3.6425L8.56489 3.63347L8.79342 3.6425L9.02194 3.66689L9.2622 3.70934L9.49343 3.76805L9.72827 3.8358L9.94866 3.92612L10.1654 4.01735L10.3858 4.13025L10.6035 4.24948L10.8067 4.37594L11.0073 4.52046L11.2051 4.66678L11.3884 4.82033L11.5664 4.99014L11.7335 5.15634L11.8952 5.33428L11.9936 5.43002L12.0812 5.54293L12.1715 5.65944L12.2592 5.78951L12.3296 5.925L12.4055 6.0659L12.4823 6.21042L12.5473 6.34862L12.6033 6.49314L12.6575 6.63675L12.7081 6.77495L12.7505 6.90773L12.7876 7.03237L12.8183 7.1507L12.8408 7.2636L12.858 7.35483L12.8634 7.44245V7.51832L13.0892 7.52103V3.79876H12.8688L12.8408 3.93606L12.8128 4.01193L12.7839 4.09142L12.7505 4.16819L12.7135 4.24768L12.6747 4.32084L12.6349 4.38949L12.5925 4.45723L12.5473 4.51323L12.4931 4.55839L12.4335 4.59542L12.3712 4.62072L12.3061 4.63788L12.2239 4.64059H12.1481L12.0577 4.62072L11.9674 4.59271L11.8599 4.55026L11.7588 4.50239L11.654 4.43645L11.5438 4.37684L11.4453 4.31813L11.3406 4.25581L11.2358 4.1989L11.1509 4.14832L10.9504 4.04716L10.5918 3.86289L10.4048 3.77257L10.2305 3.69399L10.0552 3.62083L9.86285 3.54947L9.68221 3.49076L9.49253 3.44289L9.29291 3.40314L9.08607 3.37243L8.87742 3.35798L8.51341 3.34082L8.33547 3.34353L8.1494 3.35527L7.95972 3.36701L7.77636 3.38598L7.59572 3.4185L7.40061 3.44921L7.2281 3.48895L7.05016 3.53411L6.8668 3.59283L6.69789 3.65244L6.52808 3.72018L6.35918 3.79605L6.20382 3.87825L6.04214 3.97128L5.90123 4.06793L5.76033 4.17813L5.62484 4.29193L5.49748 4.41297L5.38187 4.54304L5.26896 4.68394L5.16961 4.82485L5.07657 4.98653L4.99257 5.1446L4.93025 5.32524L4.87063 5.50951L4.82547 5.69557L4.78934 5.90242L4.76947 6.11468L4.76044 6.33236L4.77489 6.58346L4.65927 6.58075L4.47592 6.58346L4.29165 6.59249L4.1083 6.60695L3.9159 6.62682L3.73526 6.65753L3.5537 6.68553L3.37035 6.72798L3.19512 6.77856L3.01989 6.83005L2.84195 6.88876L2.67485 6.96282L2.51678 7.03328L2.35329 7.12089L2.20065 7.21483L2.048 7.31328L1.91251 7.41806L1.77432 7.53096L1.65057 7.64929L1.52863 7.77665L1.42386 7.92026L1.32269 8.0711L1.22966 8.22375L1.15018 8.38453L1.08243 8.56247L1.02011 8.74854L0.974946 8.93551L0.946946 9.13874L0.927074 9.3501L0.918945 9.57049L0.927074 9.75746L0.949656 9.94082L0.983979 10.1251L1.03456 10.303L1.1023 10.4719L1.1845 10.6444L1.28024 10.8088L1.39315 10.9669L1.51418 11.1259L1.6587 11.2731L1.81135 11.4167L1.97755 11.5549L2.16361 11.6877L2.35871 11.8069L2.56465 11.9261L2.79679 12.0363L3.03976 12.1411L3.29176 12.2341L3.53474 12.3154L3.79126 12.4094L4.0541 12.4934L4.32778 12.5927L4.61863 12.6948L4.92121 12.7878L5.23193 12.8872L5.56613 12.9838L5.91388 13.0769L6.17943 13.1473L6.43324 13.2187L6.66447 13.2837L6.87944 13.3551L7.08809 13.4282L7.27777 13.5041L7.44397 13.5809L7.60746 13.6595L7.74927 13.7308L7.88475 13.8211L8.00037 13.9006L8.11056 13.9882L8.22618 14.1066L8.34179 14.2195L8.43754 14.3297L8.51431 14.4372L8.58477 14.5501L8.64438 14.6657L8.68683 14.784L8.72296 14.9141L8.74012 15.0496L8.74825 15.1914L8.75096 15.3431L8.74825 15.5021L8.74554 15.6466L8.73741 15.7875L8.72296 15.923L8.69225 16.0585L8.65522 16.1786L8.60464 16.2996L8.54502 16.418L8.46915 16.5282L8.38967 16.6411L8.27947 16.7458L8.16386 16.8479L8.01121 16.9617L7.86217 17.052L7.68965 17.1333L7.52617 17.2047L7.34552 17.2643L7.15313 17.3041L6.96435 17.3402L6.73764 17.3718L6.51815 17.3917L6.30588 17.3998L6.11349 17.3971L5.93285 17.3853L5.76846 17.3682L5.61039 17.3456L5.46948 17.314L5.35116 17.2833L5.12444 17.2155L5.01154 17.1758L4.90767 17.1333L4.80289 17.0936L4.70444 17.0511L4.61953 17.0087L4.53734 16.9717L4.45875 16.9382L4.34314 16.8705L4.29798 16.8443L4.26094 16.8244L4.23836 16.819L4.23023 16.8163L3.96197 16.6664L3.68467 16.4848L3.53835 16.3809L3.3857 16.2644L3.25563 16.1551L3.12015 16.0449L3.00453 15.9293L2.8853 15.8155L2.77782 15.7026L2.67304 15.5951L2.57459 15.4958L2.49239 15.391L2.41291 15.297L2.34246 15.2158L2.28375 15.1363L2.23226 15.0658L2.1871 15.0125L2.15639 14.9647L2.12839 14.9276L2.11123 14.9077L2.10852 14.9023L1.98387 14.7045L1.87909 14.5094L1.78245 14.317L1.70115 14.1364L1.6307 13.9611L1.56296 13.7941L1.50605 13.6333L1.45818 13.4752L1.41573 13.3253L1.37599 13.1898L1.33624 13.0597L1.30011 12.9351L1.26037 12.814L0.994818 12.805L1.00656 17.7656L1.35702 17.7774L1.35973 17.6952L1.37147 17.622L1.39134 17.5371L1.41663 17.4495L1.44463 17.3564L1.48167 17.2661L1.52412 17.1722L1.57199 17.0819L1.63431 16.9888L1.69573 16.9093L1.76709 16.8217L1.84296 16.7513L1.93058 16.6799L2.0209 16.6203L2.11935 16.5724L2.22413 16.5363L2.33704 16.5101L2.45807 16.4966H2.56285L2.68117 16.5101L2.80311 16.5327L2.93047 16.5724L3.05963 16.6266L3.19512 16.6953L3.34235 16.7766L3.52841 16.8813L3.69822 16.9834L3.86984 17.0737L4.03423 17.155L4.03965 17.1577L4.06223 17.1722L4.09655 17.192L4.14443 17.2173L4.20043 17.2571L4.36211 17.333L4.45243 17.3754L4.56353 17.426L4.68185 17.4739L4.80018 17.5226L4.93838 17.5678L5.07928 17.6184L5.22922 17.6581L5.38729 17.7006L5.55168 17.734L5.72871 17.762L5.90394 17.7909L6.08459 17.8099L6.27969 17.8162H6.47208L6.66718 17.8072L6.86499 17.7873L7.07725 17.7484L7.2859 17.7087L7.49455 17.6464L7.69507 17.5786L7.90191 17.5028L8.09973 17.4124L8.2867 17.3131L8.46734 17.2038L8.6507 17.0846L8.81148 16.9572L8.97768 16.819L9.12761 16.6727L9.27213 16.5227L9.40762 16.3638L9.53136 16.2003L9.64156 16.0341L9.74634 15.858L9.83395 15.6746L9.90711 15.4822L9.97215 15.2952L10.02 15.0974L10.0571 14.9005L10.0769 14.7V14.5076L10.3876 14.485L10.7011 14.4453L11.0181 14.392L11.3261 14.3324L11.6224 14.2511L11.7976 14.2195L11.9728 14.1635L12.139 14.1012L12.3061 14.0217L12.4588 13.9404L12.6051 13.8356L12.7523 13.729L12.8878 13.6107L13.0233 13.486L13.1479 13.3506L13.2609 13.2124L13.3674 13.0651L13.4641 12.9098L13.5598 12.7454L13.6447 12.5873L13.7125 12.413L13.7748 12.2369L13.8281 12.0589L13.8733 11.8837L13.904 11.6976L13.9238 11.5134L13.9329 11.3273L13.9302 11.143L13.9284 11.1376ZM12.5943 12.2603L12.5888 12.4112L12.5798 12.5521L12.5599 12.6903L12.5319 12.8185L12.4922 12.9459L12.4443 13.0678L12.3856 13.1807L12.3088 13.2937L12.2239 13.4066L12.1192 13.5113L12.0035 13.6107L11.8256 13.738L11.6422 13.8591L11.4499 13.9639L11.2376 14.0542L11.0235 14.1364L10.8004 14.2014L10.5629 14.252L10.3145 14.2972L10.0688 14.3279L10.0435 14.1499L10.0065 13.9657L9.95318 13.7796L9.88273 13.5899L9.80595 13.4093L9.7075 13.2277L9.58917 13.0444L9.46723 12.8574L9.31188 12.6767L9.22426 12.5945L9.11949 12.5178L9.01471 12.4392L8.90993 12.3597L8.78529 12.2811L8.6778 12.2043L8.53689 12.1285L8.40412 12.0553L8.24876 11.9794L8.09882 11.9054L7.92359 11.834L7.73933 11.7581L7.55326 11.6868L7.34461 11.6136L7.1188 11.5423L6.88125 11.4745L6.63557 11.4014L6.36731 11.3336L6.08188 11.2659L5.76846 11.181L5.47761 11.0897L5.19038 10.9967L4.91579 10.8974L4.64753 10.8034L4.39101 10.7131L4.1363 10.6255L3.89152 10.5379L3.65938 10.453L3.45344 10.3518L3.25834 10.2443L3.08311 10.1314L2.92234 10.004L2.78143 9.87488L2.64595 9.7421L2.56104 9.64004L2.4933 9.52984L2.42555 9.41423L2.36594 9.29229L2.31536 9.16222L2.28194 9.02944L2.26207 8.88854L2.25303 8.73589L2.26207 8.57692L2.28465 8.4324L2.32439 8.28607L2.3831 8.14788L2.45626 8.01239L2.54117 7.87962L2.64324 7.75768L2.75614 7.63574L2.87718 7.52825L3.01266 7.42348L3.18789 7.29973L3.36583 7.19767L3.55461 7.10463L3.74429 7.02876L3.92765 6.96915L4.12817 6.92669L4.32056 6.89237L4.50934 6.8734L4.70444 6.86708H4.76676L4.82276 6.8734L4.87063 7.04502L4.93838 7.22025L5.01515 7.39006L5.11631 7.55354L5.2238 7.71432L5.34845 7.87329L5.48935 8.02594L5.642 8.17046L5.8082 8.31137L5.99427 8.44143L6.19208 8.56518L6.40434 8.68711L6.62744 8.79731L6.87131 8.90209L7.12513 8.99512L7.37894 9.08003L7.63094 9.16764L7.89559 9.26067L8.17289 9.36003L8.4556 9.45577L8.75187 9.55242L9.07432 9.64907L9.40491 9.74481L9.75176 9.83514L10.0227 9.9092L10.2738 9.97695L10.5087 10.0483L10.7227 10.1215L10.9296 10.1946L11.1157 10.2705L11.2855 10.3437L11.4489 10.4222L11.5899 10.4936L11.7253 10.5749L11.8382 10.6598L11.9457 10.7474L12.0677 10.8639L12.1806 10.9795L12.2763 11.087L12.3522 11.1999L12.4226 11.3156L12.4795 11.4257L12.5247 11.5441L12.5581 11.6723L12.5843 11.8078L12.5897 11.9487L12.5952 12.1041L12.5925 12.2594L12.5943 12.2603Z" fill="white"/>
<path d="M11.9374 15.8494L13.901 14.7519C13.901 14.7519 15.0265 14.7519 15.0536 14.7519H17.2024C17.626 14.7519 17.9972 14.6869 18.3061 14.5586C18.6114 14.4322 18.868 14.2597 19.0703 14.0456C19.2753 13.8288 19.4325 13.5777 19.5391 13.2977C19.6475 13.0132 19.7017 12.7106 19.7017 12.3963C19.7017 12.0476 19.642 11.7468 19.5255 11.5012C19.4072 11.2528 19.2473 11.0423 19.0513 10.8761C18.8508 10.7063 18.6141 10.5771 18.3495 10.4913C18.074 10.4028 17.7859 10.3576 17.4923 10.3576C17.1274 10.3576 16.7634 10.4263 16.4102 10.5627C16.0589 10.6973 16.0011 10.7352 15.7274 11.0062L14.9154 11.8128V10.2583L15.0698 10.1165C15.3372 9.87261 15.3986 9.82564 15.7527 9.6486C16.0787 9.48602 16.4202 9.33247 16.7661 9.19427C17.0371 9.08227 17.3026 8.96846 17.5546 8.85646C17.7786 8.7571 17.9783 8.64058 18.149 8.51052C18.2989 8.39671 18.42 8.26212 18.5076 8.11038C18.5843 7.97941 18.6223 7.8105 18.6223 7.60998C18.6223 7.25049 18.5076 6.98765 18.2492 6.75732C17.9864 6.52248 17.6188 6.40415 17.1572 6.40415H13.892V5.30762H17.7181C18.1661 5.30762 18.5654 5.36091 18.9068 5.46478C19.2582 5.57227 19.5589 5.72311 19.8001 5.91098C20.053 6.10879 20.2463 6.34183 20.3737 6.60196C20.501 6.8639 20.5661 7.14391 20.5661 7.43656C20.5661 8.02186 20.3177 8.57645 19.8281 9.08317C19.7134 9.2015 19.5851 9.3126 19.4451 9.41466C19.904 9.58086 20.2978 9.80486 20.6166 10.0813C20.9581 10.3775 21.2182 10.7307 21.3898 11.1308C21.5587 11.5246 21.6436 11.9455 21.6436 12.3818C21.6436 12.8407 21.547 13.2878 21.3573 13.7123C21.1649 14.1422 20.8714 14.5225 20.4857 14.8413C20.1108 15.1512 19.6393 15.4005 19.0865 15.5811C18.5428 15.759 17.9033 15.8494 17.1843 15.8494H11.9329H11.9374Z" fill="white"/>
</svg>
