<svg width="21" height="20" viewBox="0 0 21 20" fill="none" xmlns="http://www.w3.org/2000/svg">
<path d="M13.1471 10.559L13.1299 10.3811L13.1046 10.1914L13.0595 10.0162L13.0053 9.84092L12.9348 9.66569L12.859 9.49317L12.7569 9.3324L12.6467 9.16801L12.523 9.00994L12.3784 8.86L12.2881 8.78142L12.1806 8.69922L12.0795 8.61974L11.9693 8.54115L11.8537 8.46528L11.7344 8.38851L11.5989 8.31263L11.4662 8.23947L11.3108 8.1636L11.1618 8.09044L10.9865 8.01727L10.8059 7.94682L10.6198 7.87005L10.413 7.8014L10.1845 7.73095L9.95052 7.66049L9.70213 7.58914L9.43387 7.51507L9.14844 7.44733L8.83502 7.36604L8.53243 7.27481L8.2443 7.17906L7.96971 7.08242L7.70506 6.98938L7.44764 6.90448L7.19563 6.81415L6.95266 6.72925L6.72956 6.63893L6.5182 6.53686L6.3231 6.42666L6.14516 6.31376L5.98709 6.19182L5.83445 6.05904L5.71612 5.92356L5.62851 5.8242L5.54631 5.71671L5.4867 5.59839L5.4307 5.47645L5.38283 5.34638L5.34308 5.2109L5.3205 5.06728L5.30966 4.91644L5.3205 4.76741L5.3485 4.61747L5.38825 4.47385L5.45057 4.32933L5.51831 4.19656L5.60322 4.06649L5.70438 3.94726L5.80916 3.82623L5.94193 3.71603L6.06929 3.60945L6.25807 3.48119L6.43601 3.38273L6.61936 3.2888L6.81447 3.21563L7.00686 3.15421L7.19654 3.10905L7.39435 3.07744L7.58854 3.06389L7.78364 3.05486L8.01217 3.06389L8.24069 3.08828L8.48095 3.13073L8.71218 3.18944L8.94702 3.25718L9.16741 3.34751L9.38419 3.43874L9.60458 3.55164L9.82226 3.67087L10.0255 3.79732L10.226 3.94184L10.4238 4.08817L10.6072 4.24172L10.7851 4.41153L10.9522 4.57773L11.1139 4.75566L11.2124 4.85141L11.3 4.96431L11.3903 5.08083L11.4779 5.2109L11.5484 5.34638L11.6242 5.48729L11.701 5.63181L11.766 5.77001L11.822 5.91452L11.8762 6.05814L11.9268 6.19634L11.9693 6.32911L12.0063 6.45376L12.037 6.57209L12.0596 6.68499L12.0768 6.77622L12.0822 6.86383V6.9397L12.308 6.94241V3.22015H12.0876L12.0596 3.35744L12.0316 3.43332L12.0027 3.5128L11.9693 3.58958L11.9322 3.66906L11.8934 3.74223L11.8537 3.81087L11.8112 3.87862L11.766 3.93462L11.7118 3.97978L11.6522 4.01681L11.5899 4.0421L11.5249 4.05926L11.4427 4.06197H11.3668L11.2765 4.0421L11.1862 4.0141L11.0787 3.97165L10.9775 3.92378L10.8727 3.85784L10.7625 3.79823L10.6641 3.73952L10.5593 3.67719L10.4545 3.62029L10.3696 3.56971L10.1691 3.46854L9.81052 3.28428L9.62355 3.19396L9.44922 3.11537L9.274 3.04221L9.0816 2.97086L8.90096 2.91215L8.71128 2.86427L8.51166 2.82453L8.30482 2.79382L8.09617 2.77937L7.73216 2.76221L7.55422 2.76492L7.36815 2.77666L7.17847 2.7884L6.99511 2.80737L6.81447 2.83989L6.61936 2.8706L6.44685 2.91034L6.26891 2.9555L6.08555 3.01421L5.91664 3.07383L5.74683 3.14157L5.57793 3.21744L5.42257 3.29964L5.26089 3.39267L5.11998 3.48932L4.97908 3.59951L4.84359 3.71332L4.71623 3.83436L4.60062 3.96442L4.48771 4.10533L4.38836 4.24624L4.29532 4.40792L4.21132 4.56598L4.149 4.74663L4.08938 4.93089L4.04422 5.11696L4.00809 5.3238L3.98822 5.53607L3.97919 5.75375L3.99364 6.00485L3.87802 6.00214L3.69467 6.00485L3.5104 6.01388L3.32705 6.02833L3.13465 6.0482L2.95401 6.07891L2.77245 6.10691L2.5891 6.14937L2.41387 6.19995L2.23864 6.25143L2.0607 6.31014L1.8936 6.38421L1.73553 6.45466L1.57204 6.54228L1.4194 6.63622L1.26675 6.73467L1.13126 6.83945L0.993066 6.95235L0.869322 7.07068L0.747384 7.19803L0.642608 7.34165L0.541445 7.49249L0.448411 7.64514L0.368925 7.80591L0.301182 7.98385L0.238858 8.16992L0.193696 8.35689L0.165696 8.56012L0.145824 8.77148L0.137695 8.99187L0.145824 9.17884L0.168406 9.3622L0.202729 9.54646L0.25331 9.7244L0.321054 9.89331L0.403249 10.0658L0.498992 10.2302L0.611898 10.3883L0.732932 10.5473L0.877451 10.6945L1.0301 10.8381L1.1963 10.9763L1.38236 11.1091L1.57746 11.2283L1.7834 11.3475L2.01554 11.4577L2.25851 11.5625L2.51051 11.6555L2.75349 11.7368L3.01001 11.8308L3.27285 11.9148L3.54653 12.0141L3.83738 12.1162L4.13996 12.2092L4.45068 12.3086L4.78488 12.4052L5.13263 12.4983L5.39818 12.5687L5.65199 12.6401L5.88322 12.7051L6.09819 12.7765L6.30684 12.8496L6.49652 12.9255L6.66272 13.0023L6.82621 13.0809L6.96802 13.1522L7.1035 13.2425L7.21912 13.322L7.32931 13.4096L7.44493 13.528L7.56054 13.6409L7.65629 13.7511L7.73306 13.8585L7.80352 13.9715L7.86313 14.0871L7.90558 14.2054L7.94171 14.3355L7.95887 14.4709L7.967 14.6128L7.96971 14.7645L7.967 14.9235L7.96429 15.068L7.95616 15.2089L7.94171 15.3444L7.911 15.4799L7.87397 15.6L7.82339 15.721L7.76377 15.8394L7.6879 15.9496L7.60842 16.0625L7.49822 16.1672L7.38261 16.2693L7.22996 16.3831L7.08092 16.4734L6.9084 16.5547L6.74492 16.6261L6.56427 16.6857L6.37188 16.7254L6.1831 16.7616L5.95639 16.7932L5.7369 16.8131L5.52463 16.8212L5.33224 16.8185L5.1516 16.8067L4.98721 16.7896L4.82914 16.767L4.68823 16.7354L4.56991 16.7047L4.34319 16.6369L4.23029 16.5972L4.12642 16.5547L4.02164 16.515L3.92319 16.4725L3.83828 16.4301L3.75609 16.393L3.6775 16.3596L3.56189 16.2919L3.51673 16.2657L3.47969 16.2458L3.45711 16.2404L3.44898 16.2377L3.18072 16.0877L2.90342 15.9062L2.7571 15.8023L2.60445 15.6858L2.47438 15.5765L2.3389 15.4663L2.22328 15.3507L2.10405 15.2369L1.99657 15.124L1.89179 15.0165L1.79334 14.9171L1.71114 14.8124L1.63166 14.7184L1.56121 14.6371L1.5025 14.5577L1.45101 14.4872L1.40585 14.4339L1.37514 14.386L1.34714 14.349L1.32998 14.3291L1.32727 14.3237L1.20262 14.1259L1.09784 13.9308L1.0012 13.7384L0.919904 13.5578L0.849451 13.3825L0.781707 13.2154L0.724803 13.0547L0.676931 12.8966L0.634479 12.7467L0.594736 12.6112L0.554993 12.4811L0.518864 12.3565L0.479121 12.2354L0.213568 12.2264L0.22531 17.187L0.575768 17.1987L0.578478 17.1165L0.59022 17.0434L0.610091 16.9585L0.635382 16.8709L0.663383 16.7778L0.700416 16.6875L0.742868 16.5936L0.79074 16.5032L0.853064 16.4102L0.914484 16.3307L0.98584 16.2431L1.06171 16.1727L1.14933 16.1013L1.23965 16.0417L1.3381 15.9938L1.44288 15.9577L1.55579 15.9315L1.67682 15.9179H1.7816L1.89992 15.9315L2.02186 15.9541L2.14922 15.9938L2.27838 16.048L2.41387 16.1167L2.5611 16.1979L2.74716 16.3027L2.91697 16.4048L3.08859 16.4951L3.25298 16.5764L3.2584 16.5791L3.28098 16.5936L3.3153 16.6134L3.36318 16.6387L3.41918 16.6785L3.58086 16.7543L3.67118 16.7968L3.78228 16.8474L3.9006 16.8952L4.01893 16.944L4.15713 16.9892L4.29803 17.0398L4.44797 17.0795L4.60604 17.122L4.77043 17.1554L4.94746 17.1834L5.12269 17.2123L5.30334 17.2313L5.49844 17.2376H5.69083L5.88593 17.2285L6.08374 17.2087L6.296 17.1698L6.50465 17.1301L6.7133 17.0678L6.91382 17L7.12066 16.9242L7.31848 16.8338L7.50545 16.7345L7.68609 16.6252L7.86945 16.5059L8.03023 16.3786L8.19643 16.2404L8.34636 16.0941L8.49088 15.9441L8.62637 15.7852L8.75011 15.6217L8.86031 15.4555L8.96509 15.2793L9.0527 15.096L9.12586 14.9036L9.1909 14.7166L9.23877 14.5188L9.2758 14.3219L9.29567 14.1214V13.929L9.60639 13.9064L9.91981 13.8667L10.2369 13.8134L10.5449 13.7538L10.8411 13.6725L11.0164 13.6409L11.1916 13.5849L11.3578 13.5225L11.5249 13.4431L11.6775 13.3618L11.8239 13.257L11.9711 13.1504L12.1066 13.0321L12.2421 12.9074L12.3667 12.7719L12.4796 12.6337L12.5862 12.4865L12.6828 12.3312L12.7786 12.1668L12.8635 12.0087L12.9312 11.8344L12.9935 11.6582L13.0468 11.4803L13.092 11.3051L13.1227 11.119L13.1426 10.9347L13.1516 10.7487L13.1489 10.5644L13.1471 10.559ZM11.813 11.6817L11.8076 11.8326L11.7986 11.9735L11.7787 12.1117L11.7507 12.2399L11.7109 12.3673L11.6631 12.4892L11.6044 12.6021L11.5276 12.715L11.4427 12.8279L11.3379 12.9327L11.2223 13.0321L11.0444 13.1594L10.861 13.2805L10.6686 13.3852L10.4563 13.4756L10.2423 13.5578L10.0192 13.6228L9.78162 13.6734L9.53323 13.7185L9.28754 13.7493L9.26225 13.5713L9.22522 13.3871L9.17193 13.201L9.10148 13.0113L9.0247 12.8307L8.92625 12.6491L8.80792 12.4657L8.68598 12.2788L8.53063 12.0981L8.44301 12.0159L8.33824 11.9392L8.23346 11.8606L8.12868 11.7811L8.00404 11.7025L7.89655 11.6257L7.75564 11.5499L7.62287 11.4767L7.46751 11.4008L7.31757 11.3268L7.14234 11.2554L6.95808 11.1795L6.77201 11.1082L6.56336 11.035L6.33755 10.9637L6.1 10.8959L5.85432 10.8227L5.58606 10.755L5.30063 10.6873L4.98721 10.6024L4.69636 10.5111L4.40913 10.4181L4.13454 10.3187L3.86628 10.2248L3.60976 10.1345L3.35505 10.0469L3.11027 9.95925L2.87813 9.87434L2.67219 9.77318L2.47709 9.66569L2.30186 9.55279L2.14109 9.42543L2.00018 9.29627L1.8647 9.16349L1.77979 9.06142L1.71205 8.95123L1.6443 8.83561L1.58469 8.71367L1.53411 8.58361L1.50069 8.45083L1.48082 8.30992L1.47178 8.15728L1.48082 7.99831L1.5034 7.85379L1.54314 7.70746L1.60185 7.56927L1.67501 7.43378L1.75992 7.301L1.86199 7.17906L1.97489 7.05713L2.09593 6.94964L2.23141 6.84486L2.40664 6.72112L2.58458 6.61905L2.77336 6.52602L2.96304 6.45015L3.1464 6.39053L3.34692 6.34808L3.53931 6.31376L3.72809 6.29479L3.92319 6.28847H3.98551L4.04151 6.29479L4.08938 6.46641L4.15713 6.64163L4.2339 6.81144L4.33506 6.97493L4.44255 7.13571L4.5672 7.29468L4.7081 7.44733L4.86075 7.59185L5.02695 7.73275L5.21302 7.86282L5.41083 7.98656L5.62309 8.1085L5.84619 8.2187L6.09006 8.32347L6.34388 8.41651L6.59769 8.50141L6.84969 8.58903L7.11434 8.68206L7.39164 8.78142L7.67435 8.87716L7.97062 8.97381L8.29307 9.07046L8.62366 9.1662L8.97051 9.25652L9.24148 9.33059L9.49258 9.39833L9.72742 9.46969L9.94149 9.54285L10.1483 9.61601L10.3344 9.69189L10.5042 9.76505L10.6677 9.84363L10.8086 9.91499L10.9441 9.99628L11.057 10.0812L11.1645 10.1688L11.2864 10.2853L11.3993 10.4009L11.4951 10.5084L11.5709 10.6213L11.6414 10.7369L11.6983 10.8471L11.7435 10.9655L11.7769 11.0937L11.8031 11.2292L11.8085 11.3701L11.8139 11.5255L11.8112 11.6808L11.813 11.6817Z" fill="#231F20"/>
<path d="M11.1559 15.271L13.1195 14.1736C13.1195 14.1736 14.245 14.1736 14.2721 14.1736H16.4209C16.8445 14.1736 17.2157 14.1085 17.5246 13.9803C17.8299 13.8538 18.0865 13.6813 18.2888 13.4672C18.4938 13.2504 18.651 12.9993 18.7576 12.7193C18.866 12.4348 18.9202 12.1322 18.9202 11.8179C18.9202 11.4692 18.8605 11.1685 18.744 10.9228C18.6257 10.6744 18.4658 10.4639 18.2698 10.2977C18.0693 10.1279 17.8327 9.99877 17.568 9.91296C17.2925 9.82444 17.0044 9.77928 16.7108 9.77928C16.3459 9.77928 15.9819 9.84792 15.6287 9.98431C15.2774 10.1189 15.2196 10.1568 14.9459 10.4278L14.1339 11.2344V9.67992L14.2883 9.53811C14.5557 9.29424 14.6171 9.24727 14.9712 9.07023C15.2973 8.90765 15.6387 8.7541 15.9846 8.6159C16.2556 8.5039 16.5211 8.39009 16.7732 8.27809C16.9972 8.17873 17.1968 8.06221 17.3675 7.93215C17.5174 7.81834 17.6385 7.68375 17.7261 7.53201C17.8028 7.40104 17.8408 7.23213 17.8408 7.03161C17.8408 6.67212 17.7261 6.40928 17.4677 6.17895C17.2049 5.94411 16.8373 5.82578 16.3757 5.82578H13.1105V4.72925H16.9366C17.3846 4.72925 17.7839 4.78254 18.1253 4.88641C18.4767 4.9939 18.7774 5.14474 19.0186 5.33261C19.2715 5.53042 19.4648 5.76346 19.5922 6.02359C19.7195 6.28554 19.7846 6.56554 19.7846 6.85819C19.7846 7.44349 19.5362 7.99808 19.0466 8.5048C18.9319 8.62313 18.8036 8.73423 18.6636 8.83629C19.1225 9.00249 19.5163 9.22649 19.8351 9.50289C20.1766 9.79915 20.4367 10.1523 20.6083 10.5525C20.7772 10.9463 20.8621 11.3672 20.8621 11.8034C20.8621 12.2623 20.7655 12.7094 20.5758 13.1339C20.3834 13.5639 20.0899 13.9441 19.7042 14.263C19.3293 14.5728 18.8578 14.8221 18.305 15.0027C17.7613 15.1807 17.1218 15.271 16.4028 15.271H11.1514H11.1559Z" fill="#C61C53"/>
</svg>
