<svg width="239" height="56" viewBox="0 0 239 56" fill="none" xmlns="http://www.w3.org/2000/svg">
<g clip-path="url(#clip0_4377_57291)">
<path d="M8.85418 24C6.47286 24 4.42098 23.1425 2.76441 21.4464C2.55733 21.8704 2.38791 22.3981 2.27496 23.0483L2.23732 23.2556L0.900764 23.3969L0.806641 15.5194L2.13378 15.3687L2.19025 15.6231C3.17855 20.212 5.25867 22.4452 8.5624 22.4452C10.0684 22.4452 11.2355 22.0495 12.0261 21.2768C12.8827 20.4193 13.2403 19.5713 13.2403 18.4594C13.2403 17.2155 12.8921 16.1225 12.3085 15.5383C11.612 14.8504 10.2284 14.0589 8.18591 13.1826C6.56699 12.4853 5.04219 11.8351 4.08213 11.2132C3.12207 10.6196 2.12437 9.95053 1.57845 8.95171C0.957238 7.78327 0.863115 6.57715 0.863115 5.96466C0.863115 4.24971 1.45609 2.81743 2.64205 1.71496C3.79976 0.574794 5.30573 0 7.10349 0C8.08237 0 9.02361 0.169611 9.89895 0.489988C10.7084 0.791519 11.5461 1.36631 12.365 2.21437C12.6191 1.71496 12.7791 1.22497 12.8262 0.744405L12.845 0.518257L14.1063 0.367491L14.2098 6.8881L13.005 7.04829L12.9391 6.81272C12.3838 4.92815 11.7061 3.66549 10.7931 2.83628C9.82365 1.94111 8.61888 1.46996 7.29174 1.46054C6.05872 1.46054 5.0516 1.80919 4.45863 2.44994C3.93153 3.09069 3.63975 3.88221 3.63975 4.65489C3.63975 5.61602 4.08213 6.63369 4.76923 7.24617C5.51281 7.96231 6.92466 8.79152 8.8636 9.65842C10.859 10.563 12.2614 11.232 13.1462 11.7691C14.2098 12.4005 14.944 13.0978 15.4522 13.9647C16.0264 14.9729 16.2523 15.8587 16.2523 17.1307C16.2523 19.1284 15.5746 20.7962 14.2286 22.0683C12.8544 23.331 11.0378 23.9717 8.84477 23.9717L8.85418 24Z" fill="white"/>
<path d="M20.2708 22.6525L21.1179 22.6902C21.9179 22.6902 22.2662 22.5489 22.398 22.4641C22.5768 22.351 22.6992 22.1437 22.7556 21.8704C22.7933 21.6631 22.8592 21.0318 22.8592 19.2603V11.0342C22.8592 9.32862 22.7933 8.71614 22.7556 8.50883C22.718 8.32038 22.6427 8.06596 22.4356 7.94346C22.3321 7.88693 21.9932 7.7927 20.9861 7.7927H20.4402L20.252 6.53946L28.4595 6.42638L28.6666 7.78327H27.8948C26.7559 7.78327 26.5112 7.90577 26.4829 7.91519C26.3229 8.00942 26.21 8.18846 26.1347 8.46172C26.097 8.64075 26.0311 9.24382 26.0311 11.0247V14.0495L34.1351 13.9552L34.041 11.0342C34.041 9.8563 34.0034 8.88575 33.9375 8.48057C33.9092 8.30153 33.8245 8.05654 33.6269 7.93404C33.561 7.89635 33.288 7.78327 32.1868 7.78327H31.4903L31.3114 6.53004L39.6037 6.41696L39.8014 7.77385H39.1237C38.0977 7.77385 37.7683 7.8775 37.6742 7.91519C37.533 8 37.4106 8.17903 37.3353 8.46172C37.2695 8.75383 37.2318 9.62073 37.2318 11.0153V19.2415C37.2318 20.5135 37.26 21.3993 37.3071 21.8045C37.3636 22.0966 37.4859 22.3133 37.6742 22.4452C37.7777 22.5206 38.0977 22.6808 39.0107 22.6808H39.6037L39.7731 24H31.4903L31.3114 22.6431L32.2997 22.6808C33.0998 22.6808 33.448 22.5395 33.5798 22.4547C33.7586 22.3416 33.8716 22.1531 33.9375 21.8704C34.0034 21.4558 34.041 20.4476 34.041 19.2415V15.4817L25.9558 15.5665L26.0311 19.232C26.0311 20.6737 26.0594 21.4276 26.1252 21.7668C26.1629 22.0872 26.2853 22.2945 26.4735 22.4358C26.5676 22.5112 26.8782 22.6714 27.7724 22.6714H28.4595L28.6478 23.8963L20.4308 24L20.252 22.6337L20.2708 22.6525Z" fill="white"/>
<path d="M53.3167 24C50.5588 24 48.2622 23.1519 46.5021 21.4841C44.7138 19.788 43.8008 17.5359 43.8008 14.8127C43.8008 12.0895 44.7232 9.91284 46.5398 8.28269C48.3375 6.64311 50.6059 5.8139 53.2696 5.8139C55.9333 5.8139 58.2581 6.63369 60.0747 8.245C61.9101 9.86573 62.8513 12.1084 62.8513 14.8881C62.8513 17.6678 61.9666 19.788 60.2159 21.4747C58.4558 23.1708 56.1968 23.9906 53.3167 23.9906V24ZM53.2978 7.19906C51.3871 7.19906 49.9659 7.82097 48.9305 9.10248C47.9234 10.384 47.4057 12.3345 47.4057 14.8881C47.4057 17.4417 47.914 19.4582 48.9305 20.7303C49.9564 22.0024 51.453 22.6243 53.5049 22.6243C55.2556 22.6243 56.6674 21.9835 57.684 20.7303C58.7287 19.4582 59.2558 17.4982 59.2558 14.9164C59.2558 12.3345 58.7382 10.4499 57.7216 9.14017C56.7239 7.84924 55.2368 7.19906 53.2978 7.19906Z" fill="white"/>
<path d="M67.021 24L66.8516 22.6431L67.7175 22.6808C68.574 22.6808 68.894 22.53 68.9976 22.4641C69.1952 22.3416 69.3082 22.1531 69.3835 21.8516C69.3835 21.8045 69.487 21.2203 69.487 19.2509V11.0247C69.487 9.9411 69.44 8.94228 69.3741 8.47114C69.2988 8.19787 69.2047 8.01884 69.0635 7.94346C68.9599 7.88692 68.6117 7.78327 67.5857 7.78327H67.021L66.861 6.41695L69.9294 6.34157C71.3507 6.30388 72.4896 6.28503 73.3273 6.28503C75.1344 6.28503 76.4804 6.42638 77.4404 6.70906C78.4664 7.00117 79.2758 7.51 79.9253 8.26383C80.5936 9.03651 80.9324 9.99764 80.9324 11.1284C80.9324 12.1272 80.7065 12.9847 80.2453 13.7574C79.8029 14.5206 79.1629 15.1142 78.3252 15.51C77.5157 15.8963 76.1886 16.0754 74.1461 16.0754H72.5743L72.659 19.232C72.659 20.5795 72.7154 21.437 72.7625 21.795C72.819 22.1154 72.9225 22.3133 73.1014 22.4358C73.2049 22.5112 73.5437 22.6714 74.4379 22.6714H75.238L75.4168 23.9906H67.0304L67.021 24ZM73.5061 14.7091C74.4567 14.7091 75.1721 14.6243 75.7086 14.4452C76.2074 14.285 76.631 13.927 76.9981 13.3616C77.3463 12.8339 77.5157 12.1366 77.5157 11.2886C77.5157 10.0165 77.2145 9.08362 76.6216 8.51825C76.0098 7.93403 75.0121 7.65135 73.5626 7.65135C73.1672 7.65135 72.8378 7.66077 72.5648 7.67019L72.6401 14.6996L73.4967 14.7185L73.5061 14.7091Z" fill="white"/>
<path d="M85.1124 24L84.9336 22.6431L85.8184 22.6808C86.6655 22.6808 86.9855 22.53 87.089 22.4641C87.2867 22.3416 87.409 22.1531 87.4749 21.861C87.5314 21.5218 87.5502 20.636 87.5502 19.2509V11.0247C87.5502 9.67727 87.522 8.81979 87.4655 8.47114C87.3996 8.2073 87.2961 8.01885 87.1455 7.93404C86.9572 7.83039 86.4584 7.77385 85.6772 7.77385H85.1124L84.943 6.40754L88.0491 6.33216C89.4609 6.29447 90.581 6.27562 91.4093 6.27562C93.1788 6.27562 94.5153 6.41696 95.5036 6.69965C96.5108 6.99176 97.3485 7.51001 97.9979 8.25442C98.6568 9.03651 98.9956 9.99765 98.9956 11.119C98.9956 12.1178 98.7697 12.9753 98.3085 13.7479C97.8756 14.5018 97.2355 15.0954 96.3978 15.4912C95.5601 15.8869 94.2706 16.066 92.1905 16.066H90.6563L90.7504 19.2226C90.7504 20.5889 90.7692 21.4276 90.8257 21.7856C90.8916 22.0872 91.0046 22.2945 91.1928 22.4358C91.2869 22.5018 91.6069 22.6714 92.5105 22.6714H93.32L93.48 23.9906H85.1124V24ZM91.5787 14.7091C92.5199 14.7091 93.2447 14.6243 93.7906 14.4452C94.2894 14.285 94.7036 13.9458 95.0989 13.3616C95.4378 12.8245 95.6166 12.1272 95.6166 11.2886C95.6166 10.0165 95.306 9.08363 94.7036 8.51826C94.1012 7.94346 93.0847 7.65136 91.6728 7.65136C91.2681 7.65136 90.9387 7.66078 90.6751 7.6702L90.7504 14.6996L91.5787 14.7185V14.7091Z" fill="white"/>
<path d="M103.166 24L102.996 22.6337L103.768 22.6808C104.86 22.6808 105.076 22.4923 105.095 22.4641C105.302 22.2756 105.424 22.0589 105.481 21.7951C105.537 21.5029 105.556 20.6926 105.556 19.2415V11.0153C105.556 9.649 105.528 8.88575 105.462 8.52768C105.387 8.11308 105.255 7.99058 105.161 7.93404C105.039 7.84924 104.709 7.76443 103.749 7.76443H103.504L103.326 6.51119L116.023 6.39812L116.559 11.2226L115.392 11.4111L115.317 11.1755C114.922 9.86573 114.62 9.13074 114.291 8.73498C113.971 8.31096 113.576 8.03769 113.133 7.92462C112.644 7.82097 111.806 7.76443 110.667 7.76443H108.625L108.719 14.1249L110.131 14.04C110.912 14.04 111.43 13.9835 111.703 13.8704C111.928 13.7668 112.079 13.6254 112.126 13.4747C112.201 13.2674 112.286 12.8433 112.286 11.9105V11.6655L113.5 11.4865L113.604 17.8846L112.399 18.073L112.38 17.7621C112.305 16.8104 112.201 16.1979 112.07 15.9435C111.975 15.7267 111.815 15.5948 111.608 15.5194C111.335 15.4346 110.865 15.3969 110.215 15.3969H108.634L108.728 18.9776C108.728 21.6254 108.973 22.1908 109.048 22.3039C109.086 22.3604 109.378 22.662 110.818 22.662H112.079C112.898 22.662 113.585 22.5583 114.121 22.351C114.592 22.1531 115.091 21.7291 115.58 21.0789C116.07 20.3911 116.456 19.4488 116.729 18.2898L116.776 18.0919L117.999 17.96V18.0919L117.971 18.629L117.717 23.9717H103.184L103.166 24Z" fill="white"/>
<path d="M122.026 22.6431L122.996 22.6808C123.871 22.6808 124.172 22.5206 124.238 22.4641C124.455 22.3416 124.568 22.1531 124.633 21.8516C124.699 21.4653 124.737 20.4853 124.737 19.2415V11.0153C124.737 9.81862 124.699 8.86691 124.633 8.47115C124.596 8.29211 124.521 8.0377 124.323 7.92462C124.219 7.86809 123.89 7.77386 122.845 7.77386H122.299L122.139 6.41697L124.944 6.30389C126.384 6.22851 127.674 6.1814 128.784 6.1814C130.441 6.1814 131.749 6.34159 132.794 6.66196C133.876 6.98234 134.752 7.51002 135.401 8.22615C136.079 8.95171 136.418 9.85631 136.418 10.9117C136.418 12.1366 135.975 13.1449 135.072 13.9929C134.385 14.662 133.434 15.1331 132.229 15.3969C132.945 16.0377 133.867 17.1213 134.968 18.629C136.258 20.3534 137.208 21.4181 137.867 21.8799C138.526 22.3793 139.317 22.6431 140.239 22.6714H140.474L140.634 23.9906H135.608L135.533 23.9435C134.648 23.3404 133.396 21.861 131.693 19.4299C131.25 18.7703 130.752 18.1013 130.064 17.2532C129.368 16.4146 129.086 16.1413 128.963 16.0565C128.822 15.9529 128.568 15.8964 128.182 15.8964H127.796L127.881 19.232C127.881 20.4193 127.909 21.371 127.965 21.7951C128.013 22.0872 128.135 22.3039 128.314 22.4452C128.511 22.5866 129.01 22.6714 129.65 22.6714H130.704L130.883 23.8964L122.158 24L121.998 22.6431H122.026ZM127.918 14.5489H128.182C128.596 14.53 129.029 14.5112 129.434 14.4923C130.008 14.4735 130.544 14.3887 131.072 14.2379C131.552 14.0872 131.881 13.9081 132.088 13.6914C132.38 13.4181 132.578 13.0978 132.709 12.7114C132.879 12.2686 132.973 11.722 132.973 11.119C132.973 10.0259 132.709 9.17786 132.163 8.51826C131.655 7.90578 130.422 7.5854 128.596 7.5854C128.38 7.5854 128.125 7.59482 127.834 7.62309L127.918 14.5583V14.5489Z" fill="white"/>
<path d="M150.847 23.9717C149.059 23.9717 147.534 23.3498 146.32 22.1154C146.178 22.4075 146.075 22.7656 145.99 23.1896L145.952 23.3969L144.738 23.5289L144.635 17.47L145.849 17.3098L145.905 17.5642C146.668 21.013 148.174 22.6148 150.621 22.6148C151.703 22.6148 152.541 22.3227 153.087 21.7385C153.68 21.126 153.972 20.4759 153.972 19.7409C153.972 19.0059 153.718 18.4028 153.209 17.8846C152.682 17.3569 151.694 16.7915 150.207 16.1696C148.654 15.4723 147.731 15.0106 147.11 14.6243C146.367 14.1437 145.783 13.5124 145.36 12.768C144.955 12.033 144.757 11.232 144.757 10.384C144.757 9.0742 145.209 7.97173 146.103 7.11425C147.025 6.24735 148.183 5.80447 149.529 5.80447C150.301 5.80447 151.026 5.93639 151.675 6.19081C152.259 6.40754 152.861 6.82214 153.454 7.41578C153.595 7.11425 153.708 6.79387 153.727 6.4735L153.746 6.24735L154.941 6.06831L155.045 11.1661L153.915 11.3263L153.849 11.0907C153.482 9.79034 152.955 8.85748 152.193 8.15076C151.459 7.48174 150.63 7.16136 149.689 7.16136C148.804 7.16136 148.174 7.38751 147.769 7.84923C147.374 8.28268 147.167 8.80094 147.167 9.34747C147.167 10.0165 147.421 10.5913 147.929 11.053C148.447 11.5524 149.435 12.1272 150.96 12.8339C152.381 13.4464 153.454 13.9835 154.151 14.417C154.866 14.841 155.44 15.4252 155.854 16.1696C156.287 16.914 156.513 17.7903 156.513 18.7703C156.513 20.3062 155.986 21.5783 154.951 22.5489C153.925 23.51 152.551 24 150.856 24L150.847 23.9717Z" fill="white"/>
<path d="M168.561 24C166.18 24 164.128 23.1425 162.471 21.437C162.255 21.861 162.095 22.3981 161.982 23.0483L161.944 23.265L160.608 23.3875L160.514 15.51L161.831 15.3592L161.888 15.6137C162.876 20.2026 164.966 22.4358 168.279 22.4358C169.785 22.4358 170.943 22.04 171.733 21.2768C172.571 20.4287 172.947 19.5618 172.947 18.4688C172.947 17.225 172.599 16.1225 172.016 15.5383C171.31 14.8504 169.926 14.0495 167.902 13.1826C166.227 12.4759 164.759 11.8445 163.77 11.2226C162.82 10.6196 161.841 9.94111 161.304 8.96113C160.702 7.91519 160.58 6.75618 160.58 5.97409C160.58 4.2874 161.173 2.85512 162.34 1.72438C163.507 0.574794 165.013 0 166.792 0C167.761 0 168.712 0.160188 169.606 0.480565C170.425 0.800942 171.244 1.38516 172.053 2.20495C172.345 1.65842 172.496 1.1967 172.543 0.744405L172.571 0.518257L173.823 0.376914L173.926 6.8881L172.721 7.05771L172.656 6.82214C172.11 4.95642 171.423 3.69376 170.5 2.8457C169.521 1.93168 168.345 1.46996 167.008 1.46996C165.775 1.46996 164.759 1.82803 164.213 2.44994C163.676 3.08127 163.375 3.86337 163.375 4.67373C163.375 5.63486 163.808 6.65253 164.486 7.26502C165.267 8.00942 166.688 8.83863 168.589 9.68669C170.895 10.7232 172.091 11.3168 172.863 11.7974C173.945 12.4099 174.679 13.1166 175.178 13.9929C175.752 14.9918 175.978 15.8775 175.978 17.1496C175.978 19.1567 175.291 20.8245 173.945 22.106C172.59 23.3687 170.783 24 168.571 24H168.561Z" fill="white"/>
<path d="M184.035 24L183.847 22.6525L185.155 22.6902C185.927 22.6902 186.294 22.5677 186.473 22.4641C186.633 22.351 186.755 22.1343 186.821 21.8704C186.887 21.5406 186.925 20.702 186.925 19.2509V7.68904L184.826 7.77384C183.885 7.77384 183.085 7.77384 182.746 7.89634C182.463 7.98115 182.19 8.23556 181.899 8.66902C181.616 9.159 181.381 9.9411 181.23 10.9211L181.193 11.1378L179.997 11.2791L179.979 6.53003L196.94 6.42638L197.128 11.1001L195.998 11.2791L195.942 11.0247C195.631 9.74322 195.396 9.06477 195.123 8.68786C194.85 8.25441 194.568 7.99999 194.257 7.91519C193.946 7.82096 193.382 7.77384 192.403 7.77384H190.003L190.097 19.2415C190.097 20.4758 190.116 21.371 190.181 21.7668C190.229 22.0683 190.351 22.2945 190.549 22.4452C190.662 22.53 190.982 22.6714 191.847 22.6714H192.911L193.08 23.9906H184.045L184.035 24Z" fill="white"/>
<path d="M210.624 24C207.866 24 205.57 23.1519 203.8 21.4841C202.031 19.8163 201.127 17.5736 201.127 14.8127C201.127 12.0518 202.04 9.894 203.838 8.28269C205.626 6.64311 207.904 5.8139 210.586 5.8139C213.269 5.8139 215.565 6.63369 217.373 8.245C219.236 9.894 220.14 12.0613 220.14 14.8881C220.14 17.715 219.255 19.8068 217.495 21.4841C215.763 23.1519 213.448 24 210.615 24H210.624ZM210.605 7.19906C208.713 7.19906 207.245 7.83982 206.238 9.10248C205.221 10.384 204.732 12.278 204.732 14.8975C204.732 17.5171 205.24 19.4865 206.238 20.7397C207.254 22.0118 208.742 22.6337 210.793 22.6337C212.572 22.6337 213.984 21.9929 214.991 20.7397C216.027 19.4676 216.554 17.5171 216.554 14.9258C216.554 12.3345 216.036 10.4782 215.001 9.14959C214.003 7.85866 212.525 7.20849 210.605 7.20849V7.19906Z" fill="white"/>
<path d="M224.31 24L224.141 22.6431L225.025 22.6808C225.59 22.6808 226.051 22.596 226.277 22.4547C226.475 22.3416 226.597 22.1437 226.654 21.861C226.72 21.5218 226.757 20.6737 226.757 19.2415V11.0153C226.757 9.63958 226.72 8.81979 226.654 8.49941C226.597 8.2073 226.494 8.01885 226.334 7.92462C226.23 7.8775 225.882 7.77385 224.856 7.77385H224.301L224.141 6.40754L227.228 6.33216C228.64 6.29447 229.76 6.27562 230.607 6.27562C232.414 6.27562 233.751 6.41696 234.711 6.69965C235.737 6.99176 236.546 7.50059 237.196 8.25442C237.864 9.02709 238.193 9.96938 238.193 11.119C238.193 12.0895 237.977 12.947 237.534 13.7479C237.064 14.53 236.414 15.1143 235.577 15.51C234.795 15.8964 233.421 16.0754 231.388 16.0754H229.835L229.929 19.232C229.929 21.0789 229.995 21.7385 230.005 21.8139C230.052 22.0966 230.165 22.3039 230.362 22.4452C230.456 22.5112 230.795 22.6808 231.67 22.6808H232.48L232.649 24H224.291H224.31ZM230.786 14.7091C231.708 14.7091 232.452 14.6148 232.988 14.4452C233.506 14.285 233.939 13.927 234.268 13.3804C234.645 12.8057 234.833 12.1272 234.833 11.2886C234.833 10.0259 234.522 9.09305 233.911 8.51826C233.308 7.94346 232.282 7.65136 230.861 7.65136C230.466 7.65136 230.127 7.66078 229.863 7.6702L229.948 14.6996L230.795 14.7185L230.786 14.7091Z" fill="white"/>
</g>
<path d="M27.7524 51.234C26.9604 51.234 26.2644 51.15 25.6644 50.982C25.0764 50.814 24.5784 50.568 24.1704 50.244C23.7744 49.908 23.4804 49.5 23.2884 49.02C23.0964 48.54 23.0124 47.982 23.0364 47.346L24.5304 47.022C24.4824 47.646 24.5844 48.168 24.8364 48.588C25.0884 49.008 25.4724 49.326 25.9884 49.542C26.5044 49.746 27.1104 49.848 27.8064 49.848C28.4784 49.848 29.0484 49.764 29.5164 49.596C29.9844 49.428 30.3324 49.194 30.5604 48.894C30.8004 48.594 30.9204 48.252 30.9204 47.868C30.9204 47.436 30.7824 47.094 30.5064 46.842C30.2304 46.59 29.8584 46.398 29.3904 46.266C28.9344 46.122 28.4244 45.99 27.8604 45.87C27.3084 45.75 26.7564 45.612 26.2044 45.456C25.6524 45.3 25.1544 45.102 24.7104 44.862C24.2784 44.61 23.9244 44.286 23.6484 43.89C23.3844 43.482 23.2524 42.966 23.2524 42.342C23.2524 41.634 23.4264 41.022 23.7744 40.506C24.1344 39.99 24.6384 39.594 25.2864 39.318C25.9344 39.03 26.6964 38.886 27.5724 38.886C28.4364 38.886 29.2044 39.024 29.8764 39.3C30.5604 39.576 31.1004 39.984 31.4964 40.524C31.8924 41.052 32.1024 41.706 32.1264 42.486L30.5784 42.864C30.5784 42.432 30.5004 42.054 30.3444 41.73C30.2004 41.394 29.9964 41.124 29.7324 40.92C29.4684 40.704 29.1504 40.542 28.7784 40.434C28.4064 40.314 27.9984 40.254 27.5544 40.254C27.0144 40.254 26.5404 40.338 26.1324 40.506C25.7244 40.674 25.4064 40.902 25.1784 41.19C24.9504 41.478 24.8364 41.82 24.8364 42.216C24.8364 42.684 24.9984 43.056 25.3224 43.332C25.6584 43.596 26.0904 43.806 26.6184 43.962C27.1464 44.118 27.7104 44.262 28.3104 44.394C28.8264 44.502 29.3304 44.634 29.8224 44.79C30.3264 44.934 30.7824 45.132 31.1904 45.384C31.5984 45.624 31.9224 45.942 32.1624 46.338C32.4024 46.734 32.5224 47.238 32.5224 47.85C32.5224 48.534 32.3424 49.128 31.9824 49.632C31.6344 50.136 31.1064 50.532 30.3984 50.82C29.6904 51.096 28.8084 51.234 27.7524 51.234ZM34.8942 51V45.348V38.4H36.5862V41.298C36.5862 41.562 36.5742 41.832 36.5502 42.108C36.5382 42.372 36.5142 42.642 36.4782 42.918C36.4542 43.194 36.4242 43.476 36.3882 43.764C36.3522 44.04 36.3102 44.322 36.2622 44.61H36.5682C36.7482 43.902 36.9762 43.32 37.2522 42.864C37.5282 42.396 37.8702 42.048 38.2782 41.82C38.6982 41.58 39.1962 41.46 39.7722 41.46C40.8282 41.46 41.6142 41.832 42.1302 42.576C42.6582 43.308 42.9222 44.406 42.9222 45.87V51H41.2662V46.032C41.2662 44.952 41.0982 44.166 40.7622 43.674C40.4382 43.17 39.9462 42.918 39.2862 42.918C38.7342 42.918 38.2662 43.08 37.8822 43.404C37.4982 43.728 37.1922 44.166 36.9642 44.718C36.7482 45.27 36.6042 45.9 36.5322 46.608V51H34.8942ZM49.6128 51.234C48.7248 51.234 47.9388 51.042 47.2548 50.658C46.5828 50.262 46.0548 49.698 45.6708 48.966C45.2988 48.234 45.1128 47.346 45.1128 46.302C45.1128 45.222 45.3108 44.328 45.7068 43.62C46.1148 42.9 46.6548 42.36 47.3268 42C47.9988 41.64 48.7488 41.46 49.5768 41.46C50.4408 41.46 51.2088 41.652 51.8808 42.036C52.5648 42.408 53.1048 42.96 53.5008 43.692C53.8968 44.412 54.0948 45.306 54.0948 46.374C54.0948 47.442 53.8968 48.336 53.5008 49.056C53.1168 49.776 52.5828 50.322 51.8988 50.694C51.2268 51.054 50.4648 51.234 49.6128 51.234ZM49.6848 49.884C50.2608 49.884 50.7528 49.746 51.1608 49.47C51.5808 49.182 51.8988 48.78 52.1148 48.264C52.3428 47.748 52.4568 47.136 52.4568 46.428C52.4568 45.696 52.3368 45.066 52.0968 44.538C51.8688 43.998 51.5388 43.584 51.1068 43.296C50.6748 42.996 50.1528 42.846 49.5408 42.846C48.9888 42.846 48.5028 42.978 48.0828 43.242C47.6628 43.506 47.3388 43.896 47.1108 44.412C46.8828 44.916 46.7688 45.534 46.7688 46.266C46.7688 47.394 47.0268 48.282 47.5428 48.93C48.0708 49.566 48.7848 49.884 49.6848 49.884ZM56.4274 53.916V46.356V41.694H57.9034L57.8134 44.088H58.0834C58.2274 43.56 58.4254 43.104 58.6774 42.72C58.9414 42.324 59.2774 42.018 59.6854 41.802C60.0934 41.574 60.5854 41.46 61.1614 41.46C62.0134 41.46 62.7214 41.676 63.2854 42.108C63.8614 42.528 64.2934 43.11 64.5814 43.854C64.8694 44.586 65.0134 45.42 65.0134 46.356C65.0134 47.292 64.8694 48.126 64.5814 48.858C64.2934 49.59 63.8674 50.172 63.3034 50.604C62.7514 51.024 62.0734 51.234 61.2694 51.234C60.6214 51.234 60.0814 51.102 59.6494 50.838C59.2294 50.562 58.8934 50.202 58.6414 49.758C58.3894 49.314 58.1914 48.852 58.0474 48.372H57.7414C57.8134 48.696 57.8734 49.032 57.9214 49.38C57.9694 49.728 58.0054 50.076 58.0294 50.424C58.0654 50.76 58.0834 51.084 58.0834 51.396V53.916H56.4274ZM60.8554 49.812C61.3834 49.812 61.8274 49.662 62.1874 49.362C62.5474 49.05 62.8234 48.63 63.0154 48.102C63.2074 47.574 63.3034 46.98 63.3034 46.32C63.3034 45.612 63.2014 45.006 62.9974 44.502C62.8054 43.998 62.5294 43.608 62.1694 43.332C61.8094 43.044 61.3714 42.9 60.8554 42.9C60.4114 42.9 60.0154 43.002 59.6674 43.206C59.3314 43.398 59.0434 43.662 58.8034 43.998C58.5634 44.322 58.3774 44.682 58.2454 45.078C58.1254 45.462 58.0654 45.846 58.0654 46.23V46.446C58.0654 46.686 58.1014 46.956 58.1734 47.256C58.2454 47.544 58.3534 47.838 58.4974 48.138C58.6414 48.438 58.8214 48.714 59.0374 48.966C59.2654 49.218 59.5294 49.422 59.8294 49.578C60.1294 49.734 60.4714 49.812 60.8554 49.812ZM67.3786 53.916V46.356V41.694H68.8546L68.7646 44.088H69.0346C69.1786 43.56 69.3766 43.104 69.6286 42.72C69.8926 42.324 70.2286 42.018 70.6366 41.802C71.0446 41.574 71.5366 41.46 72.1126 41.46C72.9646 41.46 73.6726 41.676 74.2366 42.108C74.8126 42.528 75.2446 43.11 75.5326 43.854C75.8206 44.586 75.9646 45.42 75.9646 46.356C75.9646 47.292 75.8206 48.126 75.5326 48.858C75.2446 49.59 74.8186 50.172 74.2546 50.604C73.7026 51.024 73.0246 51.234 72.2206 51.234C71.5726 51.234 71.0326 51.102 70.6006 50.838C70.1806 50.562 69.8446 50.202 69.5926 49.758C69.3406 49.314 69.1426 48.852 68.9986 48.372H68.6926C68.7646 48.696 68.8246 49.032 68.8726 49.38C68.9206 49.728 68.9566 50.076 68.9806 50.424C69.0166 50.76 69.0346 51.084 69.0346 51.396V53.916H67.3786ZM71.8066 49.812C72.3346 49.812 72.7786 49.662 73.1386 49.362C73.4986 49.05 73.7746 48.63 73.9666 48.102C74.1586 47.574 74.2546 46.98 74.2546 46.32C74.2546 45.612 74.1526 45.006 73.9486 44.502C73.7566 43.998 73.4806 43.608 73.1206 43.332C72.7606 43.044 72.3226 42.9 71.8066 42.9C71.3626 42.9 70.9666 43.002 70.6186 43.206C70.2826 43.398 69.9946 43.662 69.7546 43.998C69.5146 44.322 69.3286 44.682 69.1966 45.078C69.0766 45.462 69.0166 45.846 69.0166 46.23V46.446C69.0166 46.686 69.0526 46.956 69.1246 47.256C69.1966 47.544 69.3046 47.838 69.4486 48.138C69.5926 48.438 69.7726 48.714 69.9886 48.966C70.2166 49.218 70.4806 49.422 70.7806 49.578C71.0806 49.734 71.4226 49.812 71.8066 49.812ZM78.3477 51V41.694H79.9857V51H78.3477ZM79.1757 40.074C78.7917 40.074 78.5037 39.996 78.3117 39.84C78.1197 39.684 78.0237 39.45 78.0237 39.138C78.0237 38.826 78.1197 38.592 78.3117 38.436C78.5037 38.28 78.7857 38.202 79.1577 38.202C79.5417 38.202 79.8297 38.28 80.0217 38.436C80.2137 38.592 80.3097 38.826 80.3097 39.138C80.3097 39.438 80.2137 39.672 80.0217 39.84C79.8297 39.996 79.5477 40.074 79.1757 40.074ZM82.8297 51V45.222V41.694H84.3057L84.1437 44.646H84.4497C84.6177 43.914 84.8397 43.314 85.1157 42.846C85.4037 42.378 85.7637 42.03 86.1957 41.802C86.6277 41.574 87.1317 41.46 87.7077 41.46C88.7397 41.46 89.5197 41.832 90.0477 42.576C90.5877 43.308 90.8577 44.406 90.8577 45.87V51H89.2017V46.014C89.2017 44.958 89.0337 44.178 88.6977 43.674C88.3737 43.17 87.8937 42.918 87.2577 42.918C86.6817 42.918 86.1897 43.098 85.7817 43.458C85.3857 43.818 85.0737 44.292 84.8457 44.88C84.6177 45.468 84.4917 46.104 84.4677 46.788V51H82.8297ZM97.0264 54.15C96.0424 54.15 95.2324 54.072 94.5964 53.916C93.9724 53.772 93.5104 53.544 93.2104 53.232C92.9104 52.932 92.7604 52.554 92.7604 52.098C92.7604 51.546 92.9764 51.09 93.4084 50.73C93.8404 50.37 94.4944 50.13 95.3704 50.01V49.686C94.7344 49.686 94.2544 49.608 93.9304 49.452C93.6064 49.296 93.4444 49.062 93.4444 48.75C93.4444 48.426 93.6064 48.156 93.9304 47.94C94.2544 47.712 94.7824 47.502 95.5144 47.31V46.968C94.7824 46.956 94.2244 46.74 93.8404 46.32C93.4564 45.888 93.2644 45.33 93.2644 44.646C93.2644 44.034 93.4264 43.506 93.7504 43.062C94.0864 42.606 94.5664 42.258 95.1904 42.018C95.8264 41.766 96.5824 41.64 97.4584 41.64H101.85V43.026L98.9704 42.576V42.918C99.6664 43.062 100.2 43.308 100.572 43.656C100.944 43.992 101.13 44.448 101.13 45.024C101.13 45.54 100.98 45.99 100.68 46.374C100.38 46.758 99.9364 47.058 99.3484 47.274C98.7724 47.478 98.0584 47.58 97.2064 47.58C97.0384 47.58 96.8584 47.574 96.6664 47.562C96.4864 47.538 96.2464 47.502 95.9464 47.454C95.6224 47.658 95.3584 47.844 95.1544 48.012C94.9624 48.18 94.8664 48.33 94.8664 48.462C94.8664 48.594 94.9564 48.702 95.1364 48.786C95.3284 48.858 95.5564 48.906 95.8204 48.93C96.0844 48.954 96.3304 48.966 96.5584 48.966H98.6644C98.9044 48.966 99.2044 48.99 99.5644 49.038C99.9364 49.086 100.302 49.188 100.662 49.344C101.034 49.5 101.346 49.74 101.598 50.064C101.85 50.388 101.976 50.838 101.976 51.414C101.976 52.062 101.784 52.59 101.4 52.998C101.016 53.406 100.458 53.7 99.7264 53.88C98.9944 54.06 98.0944 54.15 97.0264 54.15ZM97.0624 52.8C97.8664 52.8 98.5144 52.746 99.0064 52.638C99.5104 52.542 99.8764 52.386 100.104 52.17C100.344 51.954 100.464 51.678 100.464 51.342C100.464 51.03 100.38 50.79 100.212 50.622C100.056 50.442 99.8584 50.316 99.6184 50.244C99.3784 50.172 99.1384 50.13 98.8984 50.118C98.6584 50.094 98.4544 50.082 98.2864 50.082H96.1804C95.4844 50.238 95.0044 50.454 94.7404 50.73C94.4764 51.006 94.3444 51.3 94.3444 51.612C94.3444 51.948 94.4644 52.2 94.7044 52.368C94.9444 52.536 95.2684 52.65 95.6764 52.71C96.0964 52.77 96.5584 52.8 97.0624 52.8ZM97.2784 46.518C98.0344 46.518 98.6044 46.362 98.9884 46.05C99.3724 45.738 99.5644 45.318 99.5644 44.79C99.5644 44.226 99.3664 43.764 98.9704 43.404C98.5864 43.032 98.0044 42.846 97.2244 42.846C96.4684 42.846 95.8864 43.02 95.4784 43.368C95.0824 43.716 94.8844 44.166 94.8844 44.718C94.8844 45.078 94.9744 45.396 95.1544 45.672C95.3464 45.936 95.6164 46.146 95.9644 46.302C96.3244 46.446 96.7624 46.518 97.2784 46.518ZM104.648 51.216C104.264 51.216 103.976 51.132 103.784 50.964C103.592 50.796 103.496 50.526 103.496 50.154C103.496 49.794 103.592 49.53 103.784 49.362C103.976 49.194 104.264 49.11 104.648 49.11C105.044 49.11 105.338 49.194 105.53 49.362C105.734 49.53 105.836 49.8 105.836 50.172C105.836 50.868 105.44 51.216 104.648 51.216ZM111.338 51L115.514 39.12H117.926L122.102 51H120.32L116.828 40.506H116.612L113.12 51H111.338ZM113.318 48.336V47.076H120.32V48.336H113.318ZM124.015 51V45.222V41.694H125.491L125.329 44.646H125.635C125.803 43.914 126.025 43.314 126.301 42.846C126.589 42.378 126.949 42.03 127.381 41.802C127.813 41.574 128.317 41.46 128.893 41.46C129.925 41.46 130.705 41.832 131.233 42.576C131.773 43.308 132.043 44.406 132.043 45.87V51H130.387V46.014C130.387 44.958 130.219 44.178 129.883 43.674C129.559 43.17 129.079 42.918 128.443 42.918C127.867 42.918 127.375 43.098 126.967 43.458C126.571 43.818 126.259 44.292 126.031 44.88C125.803 45.468 125.677 46.104 125.653 46.788V51H124.015ZM138.049 51.234C137.257 51.234 136.579 51.024 136.015 50.604C135.451 50.184 135.019 49.608 134.719 48.876C134.431 48.144 134.287 47.304 134.287 46.356C134.287 45.408 134.431 44.568 134.719 43.836C135.007 43.104 135.427 42.528 135.979 42.108C136.531 41.688 137.209 41.478 138.013 41.478C138.673 41.478 139.213 41.616 139.633 41.892C140.053 42.168 140.389 42.528 140.641 42.972C140.905 43.404 141.097 43.878 141.217 44.394H141.541C141.481 44.046 141.427 43.686 141.379 43.314C141.331 42.93 141.289 42.558 141.253 42.198C141.217 41.826 141.199 41.496 141.199 41.208V38.4H142.855V46.41V51H141.379L141.469 48.48H141.181C141.037 49.02 140.833 49.5 140.569 49.92C140.305 50.328 139.969 50.652 139.561 50.892C139.153 51.12 138.649 51.234 138.049 51.234ZM138.427 49.794C138.859 49.794 139.249 49.692 139.597 49.488C139.945 49.284 140.239 49.02 140.479 48.696C140.719 48.36 140.899 48 141.019 47.616C141.151 47.232 141.217 46.86 141.217 46.5V46.284C141.217 46.032 141.181 45.762 141.109 45.474C141.037 45.174 140.929 44.874 140.785 44.574C140.653 44.274 140.473 43.998 140.245 43.746C140.029 43.482 139.771 43.278 139.471 43.134C139.171 42.978 138.835 42.9 138.463 42.9C137.923 42.9 137.467 43.056 137.095 43.368C136.735 43.668 136.459 44.082 136.267 44.61C136.087 45.138 135.997 45.732 135.997 46.392C135.997 47.076 136.093 47.676 136.285 48.192C136.477 48.696 136.753 49.092 137.113 49.38C137.485 49.656 137.923 49.794 138.427 49.794ZM150.385 51V39.12H154.741C155.401 39.12 156.001 39.18 156.541 39.3C157.093 39.42 157.561 39.606 157.945 39.858C158.329 40.098 158.623 40.416 158.827 40.812C159.043 41.208 159.151 41.682 159.151 42.234C159.151 42.69 159.061 43.092 158.881 43.44C158.701 43.788 158.413 44.07 158.017 44.286C157.633 44.502 157.123 44.67 156.487 44.79V44.988C157.591 45.084 158.389 45.384 158.881 45.888C159.385 46.392 159.637 47.052 159.637 47.868C159.637 48.54 159.475 49.11 159.151 49.578C158.839 50.034 158.353 50.388 157.693 50.64C157.045 50.88 156.205 51 155.173 51H150.385ZM151.969 49.596H155.335C156.235 49.596 156.901 49.446 157.333 49.146C157.777 48.834 157.999 48.36 157.999 47.724C157.999 46.992 157.693 46.446 157.081 46.086C156.481 45.714 155.569 45.528 154.345 45.528H151.969V49.596ZM151.969 44.304H154.021C155.197 44.304 156.073 44.148 156.649 43.836C157.225 43.512 157.513 43.032 157.513 42.396C157.513 41.76 157.261 41.286 156.757 40.974C156.265 40.662 155.515 40.506 154.507 40.506H151.969V44.304ZM166.085 51.234C165.353 51.234 164.705 51.126 164.141 50.91C163.589 50.682 163.121 50.358 162.737 49.938C162.353 49.518 162.065 49.02 161.873 48.444C161.681 47.868 161.585 47.22 161.585 46.5C161.585 45.768 161.681 45.096 161.873 44.484C162.065 43.872 162.347 43.338 162.719 42.882C163.091 42.426 163.547 42.078 164.087 41.838C164.627 41.586 165.245 41.46 165.941 41.46C166.553 41.46 167.111 41.562 167.615 41.766C168.119 41.97 168.545 42.288 168.893 42.72C169.253 43.14 169.523 43.674 169.703 44.322C169.883 44.958 169.955 45.708 169.919 46.572L162.611 46.626V45.51L168.929 45.456L168.371 46.212C168.431 45.456 168.359 44.832 168.155 44.34C167.951 43.848 167.657 43.476 167.273 43.224C166.901 42.972 166.457 42.846 165.941 42.846C165.389 42.846 164.903 42.99 164.483 43.278C164.063 43.566 163.739 43.98 163.511 44.52C163.295 45.06 163.187 45.714 163.187 46.482C163.187 47.586 163.433 48.432 163.925 49.02C164.417 49.596 165.149 49.884 166.121 49.884C166.493 49.884 166.817 49.842 167.093 49.758C167.381 49.662 167.621 49.536 167.813 49.38C168.017 49.212 168.179 49.02 168.299 48.804C168.431 48.588 168.533 48.354 168.605 48.102L170.045 48.444C169.937 48.876 169.769 49.266 169.541 49.614C169.325 49.95 169.049 50.238 168.713 50.478C168.389 50.718 168.011 50.904 167.579 51.036C167.147 51.168 166.649 51.234 166.085 51.234ZM175.51 54.132C175.018 54.132 174.532 54.072 174.052 53.952C173.584 53.844 173.152 53.676 172.756 53.448C172.36 53.22 172.036 52.926 171.784 52.566L172.612 51.378C172.888 51.786 173.278 52.098 173.782 52.314C174.286 52.53 174.838 52.638 175.438 52.638C176.11 52.638 176.668 52.488 177.112 52.188C177.568 51.9 177.91 51.45 178.138 50.838C178.366 50.214 178.486 49.44 178.498 48.516L178.696 46.644H178.354C178.222 47.52 178.012 48.222 177.724 48.75C177.448 49.266 177.1 49.638 176.68 49.866C176.272 50.094 175.798 50.208 175.258 50.208C174.586 50.208 174.016 50.04 173.548 49.704C173.092 49.356 172.744 48.852 172.504 48.192C172.264 47.52 172.144 46.704 172.144 45.744V41.694H173.782V45.384C173.782 46.548 173.944 47.406 174.268 47.958C174.604 48.498 175.102 48.768 175.762 48.768C176.122 48.768 176.446 48.678 176.734 48.498C177.022 48.318 177.268 48.054 177.472 47.706C177.688 47.358 177.856 46.92 177.976 46.392C178.108 45.852 178.192 45.228 178.228 44.52V41.694H179.866V48.606C179.866 49.338 179.812 49.998 179.704 50.586C179.596 51.174 179.422 51.684 179.182 52.116C178.954 52.56 178.666 52.932 178.318 53.232C177.97 53.532 177.562 53.754 177.094 53.898C176.626 54.054 176.098 54.132 175.51 54.132ZM186.687 51.234C185.799 51.234 185.013 51.042 184.329 50.658C183.657 50.262 183.129 49.698 182.745 48.966C182.373 48.234 182.187 47.346 182.187 46.302C182.187 45.222 182.385 44.328 182.781 43.62C183.189 42.9 183.729 42.36 184.401 42C185.073 41.64 185.823 41.46 186.651 41.46C187.515 41.46 188.283 41.652 188.955 42.036C189.639 42.408 190.179 42.96 190.575 43.692C190.971 44.412 191.169 45.306 191.169 46.374C191.169 47.442 190.971 48.336 190.575 49.056C190.191 49.776 189.657 50.322 188.973 50.694C188.301 51.054 187.539 51.234 186.687 51.234ZM186.759 49.884C187.335 49.884 187.827 49.746 188.235 49.47C188.655 49.182 188.973 48.78 189.189 48.264C189.417 47.748 189.531 47.136 189.531 46.428C189.531 45.696 189.411 45.066 189.171 44.538C188.943 43.998 188.613 43.584 188.181 43.296C187.749 42.996 187.227 42.846 186.615 42.846C186.063 42.846 185.577 42.978 185.157 43.242C184.737 43.506 184.413 43.896 184.185 44.412C183.957 44.916 183.843 45.534 183.843 46.266C183.843 47.394 184.101 48.282 184.617 48.93C185.145 49.566 185.859 49.884 186.759 49.884ZM193.502 51V45.222V41.694H194.978L194.816 44.646H195.122C195.29 43.914 195.512 43.314 195.788 42.846C196.076 42.378 196.436 42.03 196.868 41.802C197.3 41.574 197.804 41.46 198.38 41.46C199.412 41.46 200.192 41.832 200.72 42.576C201.26 43.308 201.53 44.406 201.53 45.87V51H199.874V46.014C199.874 44.958 199.706 44.178 199.37 43.674C199.046 43.17 198.566 42.918 197.93 42.918C197.354 42.918 196.862 43.098 196.454 43.458C196.058 43.818 195.746 44.292 195.518 44.88C195.29 45.468 195.164 46.104 195.14 46.788V51H193.502ZM207.535 51.234C206.743 51.234 206.065 51.024 205.501 50.604C204.937 50.184 204.505 49.608 204.205 48.876C203.917 48.144 203.773 47.304 203.773 46.356C203.773 45.408 203.917 44.568 204.205 43.836C204.493 43.104 204.913 42.528 205.465 42.108C206.017 41.688 206.695 41.478 207.499 41.478C208.159 41.478 208.699 41.616 209.119 41.892C209.539 42.168 209.875 42.528 210.127 42.972C210.391 43.404 210.583 43.878 210.703 44.394H211.027C210.967 44.046 210.913 43.686 210.865 43.314C210.817 42.93 210.775 42.558 210.739 42.198C210.703 41.826 210.685 41.496 210.685 41.208V38.4H212.341V46.41V51H210.865L210.955 48.48H210.667C210.523 49.02 210.319 49.5 210.055 49.92C209.791 50.328 209.455 50.652 209.047 50.892C208.639 51.12 208.135 51.234 207.535 51.234ZM207.913 49.794C208.345 49.794 208.735 49.692 209.083 49.488C209.431 49.284 209.725 49.02 209.965 48.696C210.205 48.36 210.385 48 210.505 47.616C210.637 47.232 210.703 46.86 210.703 46.5V46.284C210.703 46.032 210.667 45.762 210.595 45.474C210.523 45.174 210.415 44.874 210.271 44.574C210.139 44.274 209.959 43.998 209.731 43.746C209.515 43.482 209.257 43.278 208.957 43.134C208.657 42.978 208.321 42.9 207.949 42.9C207.409 42.9 206.953 43.056 206.581 43.368C206.221 43.668 205.945 44.082 205.753 44.61C205.573 45.138 205.483 45.732 205.483 46.392C205.483 47.076 205.579 47.676 205.771 48.192C205.963 48.696 206.239 49.092 206.599 49.38C206.971 49.656 207.409 49.794 207.913 49.794ZM215.355 51.216C214.971 51.216 214.683 51.132 214.491 50.964C214.299 50.796 214.203 50.526 214.203 50.154C214.203 49.794 214.299 49.53 214.491 49.362C214.683 49.194 214.971 49.11 215.355 49.11C215.751 49.11 216.045 49.194 216.237 49.362C216.441 49.53 216.543 49.8 216.543 50.172C216.543 50.868 216.147 51.216 215.355 51.216Z" fill="white"/>
<defs>
<clipPath id="clip0_4377_57291">
<rect width="237.386" height="24" fill="white" transform="translate(0.806641)"/>
</clipPath>
</defs>
</svg>
