<svg width="20" height="21" viewBox="0 0 20 21" fill="none" xmlns="http://www.w3.org/2000/svg">
<path d="M9.99971 15.2727L14.2747 17.9016C14.3856 17.9689 14.514 18.0019 14.6437 17.9963C14.7733 17.9907 14.8983 17.9467 15.003 17.8701C15.1077 17.7934 15.1873 17.6874 15.2318 17.5655C15.2762 17.4436 15.2836 17.3113 15.2528 17.1852L14.0903 12.2797L17.895 8.99848C17.992 8.91331 18.062 8.80158 18.0962 8.67711C18.1304 8.55264 18.1275 8.42087 18.0877 8.29806C18.0479 8.17526 17.973 8.06679 17.8722 7.98607C17.7715 7.90534 17.6493 7.85588 17.5208 7.84379L12.5278 7.43754L10.6044 2.78129C10.5554 2.66117 10.4717 2.55837 10.364 2.48601C10.2563 2.41365 10.1295 2.375 9.99971 2.375C9.86996 2.375 9.74315 2.41365 9.63546 2.48601C9.52776 2.55837 9.44406 2.66117 9.39502 2.78129L7.47158 7.43754L2.47862 7.84379C2.34921 7.85516 2.22603 7.9044 2.12445 7.98537C2.02287 8.06634 1.94741 8.17544 1.90748 8.29905C1.86756 8.42267 1.86494 8.5553 1.89996 8.68039C1.93498 8.80548 2.00609 8.91748 2.1044 9.00239L5.90908 12.2836L4.74658 17.1852C4.71585 17.3113 4.72318 17.4436 4.76764 17.5655C4.81211 17.6874 4.89171 17.7934 4.99639 17.8701C5.10107 17.9467 5.22613 17.9907 5.35577 17.9963C5.4854 18.0019 5.61379 17.9689 5.72471 17.9016L9.99971 15.2727Z" stroke="#111827" stroke-linecap="round" stroke-linejoin="round"/>
</svg>
