<svg width="15" height="14" viewBox="0 0 15 14" fill="none" xmlns="http://www.w3.org/2000/svg">
<path d="M12.75 6.41797L8.3201 1.98807C8.01743 1.6854 7.8661 1.53407 7.6895 1.42585C7.53292 1.3299 7.36222 1.25919 7.18365 1.21632C6.98225 1.16797 6.76823 1.16797 6.3402 1.16797L4 1.16797M2.25 5.0763L2.25 6.2281C2.25 6.51346 2.25 6.65614 2.28224 6.79041C2.31081 6.90945 2.35795 7.02325 2.42192 7.12763C2.49407 7.24537 2.59496 7.34626 2.79673 7.54804L7.34673 12.098C7.80875 12.5601 8.03976 12.7911 8.30615 12.8776C8.54046 12.9538 8.79287 12.9538 9.02719 12.8776C9.29357 12.7911 9.52458 12.5601 9.9866 12.098L11.4301 10.6546C11.8921 10.1925 12.1231 9.96154 12.2097 9.69516C12.2858 9.46084 12.2858 9.20843 12.2097 8.97412C12.1231 8.70773 11.8921 8.47672 11.4301 8.0147L7.17173 3.75637C6.96996 3.55459 6.86907 3.4537 6.75133 3.38156C6.64695 3.31759 6.53315 3.27045 6.4141 3.24187C6.27984 3.20964 6.13716 3.20964 5.8518 3.20964H4.11667C3.46327 3.20964 3.13657 3.20964 2.88701 3.33679C2.66749 3.44865 2.48901 3.62712 2.37716 3.84665C2.25 4.09621 2.25 4.42291 2.25 5.0763Z" stroke="#A1632D" stroke-linecap="round" stroke-linejoin="round"/>
</svg>
