<svg width="20" height="21" viewBox="0 0 20 21" fill="none" xmlns="http://www.w3.org/2000/svg">
<path d="M8.33366 7.16732V6.33398M8.33366 10.9173V10.084M8.33366 14.6673V13.834M4.33366 3.83398H15.667C16.6004 3.83398 17.0671 3.83398 17.4236 4.01564C17.7372 4.17543 17.9922 4.4304 18.152 4.744C18.3337 5.10052 18.3337 5.56723 18.3337 6.50065V7.58398C16.7228 7.58398 15.417 8.88982 15.417 10.5007C15.417 12.1115 16.7228 13.4173 18.3337 13.4173V14.5007C18.3337 15.4341 18.3337 15.9008 18.152 16.2573C17.9922 16.5709 17.7372 16.8259 17.4236 16.9857C17.0671 17.1673 16.6004 17.1673 15.667 17.1673H4.33366C3.40024 17.1673 2.93353 17.1673 2.57701 16.9857C2.2634 16.8259 2.00844 16.5709 1.84865 16.2573C1.66699 15.9008 1.66699 15.4341 1.66699 14.5007V13.4173C3.27782 13.4173 4.58366 12.1115 4.58366 10.5007C4.58366 8.88982 3.27782 7.58398 1.66699 7.58398V6.50065C1.66699 5.56723 1.66699 5.10052 1.84865 4.744C2.00844 4.4304 2.2634 4.17543 2.57701 4.01564C2.93353 3.83398 3.40024 3.83398 4.33366 3.83398Z" stroke="#111827" stroke-linecap="round" stroke-linejoin="round"/>
</svg>
