<svg width="21" height="20" viewBox="0 0 21 20" fill="none" xmlns="http://www.w3.org/2000/svg">
<path d="M5.28467 15.5757C5.75491 14.6494 6.47245 13.8715 7.35775 13.3281C8.24305 12.7847 9.26153 12.4971 10.3003 12.4971C11.3391 12.4971 12.3575 12.7847 13.2428 13.3281C14.1281 13.8715 14.8457 14.6494 15.3159 15.5757" stroke="#6B7280" stroke-linecap="round" stroke-linejoin="round"/>
<path d="M10.3003 17.5C14.4424 17.5 17.8003 14.1421 17.8003 10C17.8003 5.85786 14.4424 2.5 10.3003 2.5C6.15816 2.5 2.80029 5.85786 2.80029 10C2.80029 14.1421 6.15816 17.5 10.3003 17.5Z" stroke="#6B7280" stroke-linecap="round" stroke-linejoin="round"/>
<path d="M10.3003 12.5C12.0262 12.5 13.4253 11.1009 13.4253 9.375C13.4253 7.64911 12.0262 6.25 10.3003 6.25C8.5744 6.25 7.17529 7.64911 7.17529 9.375C7.17529 11.1009 8.5744 12.5 10.3003 12.5Z" stroke="#6B7280" stroke-linecap="round" stroke-linejoin="round"/>
</svg>
