<svg width="20" height="21" viewBox="0 0 20 21" fill="none" xmlns="http://www.w3.org/2000/svg">
<path d="M3.125 4.875V14.875C3.125 15.2065 3.2567 15.5245 3.49112 15.7589C3.72554 15.9933 4.04348 16.125 4.375 16.125H16.875C17.0408 16.125 17.1997 16.0592 17.3169 15.9419C17.4342 15.8247 17.5 15.6658 17.5 15.5V6.75C17.5 6.58424 17.4342 6.42527 17.3169 6.30806C17.1997 6.19085 17.0408 6.125 16.875 6.125H4.375C4.04348 6.125 3.72554 5.9933 3.49112 5.75888C3.2567 5.52446 3.125 5.20652 3.125 4.875ZM3.125 4.875C3.125 4.54348 3.2567 4.22554 3.49112 3.99112C3.72554 3.7567 4.04348 3.625 4.375 3.625H15" stroke="#111827" stroke-linecap="round" stroke-linejoin="round"/>
<path d="M14.0625 11.75C14.5803 11.75 15 11.3303 15 10.8125C15 10.2947 14.5803 9.875 14.0625 9.875C13.5447 9.875 13.125 10.2947 13.125 10.8125C13.125 11.3303 13.5447 11.75 14.0625 11.75Z" fill="#2B2B2B"/>
</svg>
